<svg width="21" height="31" viewBox="0 0 21 31" fill="none" xmlns="http://www.w3.org/2000/svg">
<path fill-rule="evenodd" clip-rule="evenodd" d="M0.938016 12.9675C1.52307 12.381 2.47282 12.3798 3.05934 12.9649L10.5661 20.4529L18.0728 12.9649C18.6594 12.3798 19.6091 12.381 20.1942 12.9675C20.7792 13.554 20.778 14.5038 20.1915 15.0888L11.6254 23.6336C11.0399 24.2176 10.0922 24.2176 9.50675 23.6336L0.940665 15.0888C0.354148 14.5038 0.352962 13.554 0.938016 12.9675Z" fill="white"/>
<path fill-rule="evenodd" clip-rule="evenodd" d="M10.5654 0.5C11.3939 0.5 12.0654 1.17157 12.0654 2V22.5714C12.0654 23.3999 11.3939 24.0714 10.5654 24.0714C9.737 24.0714 9.06543 23.3999 9.06543 22.5714V2C9.06543 1.17157 9.737 0.5 10.5654 0.5Z" fill="white"/>
<path fill-rule="evenodd" clip-rule="evenodd" d="M0.5 29.2153C0.5 28.3869 1.17157 27.7153 2 27.7153H19.1322C19.9606 27.7153 20.6322 28.3869 20.6322 29.2153C20.6322 30.0438 19.9606 30.7153 19.1322 30.7153H2C1.17157 30.7153 0.5 30.0438 0.5 29.2153Z" fill="white"/>
</svg>
