<svg width="26" height="26" viewBox="0 0 26 26" fill="none" xmlns="http://www.w3.org/2000/svg">
<path fill-rule="evenodd" clip-rule="evenodd" d="M7.91289 12.6729C8.30341 12.2824 8.93658 12.2824 9.3271 12.6729L13 16.3458L16.6729 12.6729C17.0634 12.2824 17.6966 12.2824 18.0871 12.6729C18.4776 13.0634 18.4776 13.6966 18.0871 14.0871L13.7071 18.4671C13.5196 18.6546 13.2652 18.76 13 18.76C12.7348 18.76 12.4804 18.6546 12.2929 18.4671L7.91289 14.0871C7.52236 13.6966 7.52236 13.0634 7.91289 12.6729Z" fill="#3D7BBF"/>
<path fill-rule="evenodd" clip-rule="evenodd" d="M13 6.82996C13.5523 6.82996 14 7.27767 14 7.82996V17.76C14 18.3122 13.5523 18.76 13 18.76C12.4477 18.76 12 18.3122 12 17.76V7.82996C12 7.27767 12.4477 6.82996 13 6.82996Z" fill="#3D7BBF"/>
<path fill-rule="evenodd" clip-rule="evenodd" d="M13 2.5C7.20101 2.5 2.5 7.20101 2.5 13C2.5 18.799 7.20101 23.5 13 23.5C18.799 23.5 23.5 18.799 23.5 13C23.5 7.20101 18.799 2.5 13 2.5ZM0.5 13C0.5 6.09644 6.09644 0.5 13 0.5C19.9036 0.5 25.5 6.09644 25.5 13C25.5 19.9036 19.9036 25.5 13 25.5C6.09644 25.5 0.5 19.9036 0.5 13Z" fill="#3D7BBF"/>
</svg>
