<svg width="26" height="26" viewBox="0 0 26 26" fill="none" xmlns="http://www.w3.org/2000/svg">
<path fill-rule="evenodd" clip-rule="evenodd" d="M8.282 11.6337C8.67204 11.2427 9.3052 11.2419 9.69621 11.632L13 14.9275L16.3038 11.632C16.6948 11.2419 17.3279 11.2427 17.718 11.6337C18.108 12.0248 18.1072 12.6579 17.7162 13.048L13.7062 17.048C13.3159 17.4373 12.6841 17.4373 12.2938 17.048L8.28377 13.048C7.89276 12.6579 7.89196 12.0248 8.282 11.6337Z" fill="#3D7BBF"/>
<path fill-rule="evenodd" clip-rule="evenodd" d="M13 5.70996C13.5523 5.70996 14 6.15768 14 6.70996V16.34C14 16.8922 13.5523 17.34 13 17.34C12.4477 17.34 12 16.8922 12 16.34V6.70996C12 6.15768 12.4477 5.70996 13 5.70996Z" fill="#3D7BBF"/>
<path fill-rule="evenodd" clip-rule="evenodd" d="M7.98999 19.4501C7.98999 18.8978 8.43771 18.4501 8.98999 18.4501H17.01C17.5623 18.4501 18.01 18.8978 18.01 19.4501C18.01 20.0024 17.5623 20.4501 17.01 20.4501H8.98999C8.43771 20.4501 7.98999 20.0024 7.98999 19.4501Z" fill="#3D7BBF"/>
<path fill-rule="evenodd" clip-rule="evenodd" d="M6.02002 2.77002C4.22509 2.77002 2.77002 4.22509 2.77002 6.02002V19.99C2.77002 21.7849 4.22509 23.24 6.02002 23.24H19.99C21.7849 23.24 23.24 21.7849 23.24 19.99V6.02002C23.24 4.22509 21.7849 2.77002 19.99 2.77002H6.02002ZM0.77002 6.02002C0.77002 3.12052 3.12052 0.77002 6.02002 0.77002H19.99C22.8895 0.77002 25.24 3.12052 25.24 6.02002V19.99C25.24 22.8895 22.8895 25.24 19.99 25.24H6.02002C3.12052 25.24 0.77002 22.8895 0.77002 19.99V6.02002Z" fill="#3D7BBF"/>
</svg>
