<svg width="22" height="22" viewBox="0 0 22 22" fill="none" xmlns="http://www.w3.org/2000/svg">
<path fill-rule="evenodd" clip-rule="evenodd" d="M4.82292 8.89287C5.21345 8.50234 5.84661 8.50234 6.23714 8.89287L11.07 13.7258L15.9029 8.89287C16.2934 8.50234 16.9266 8.50234 17.3171 8.89287C17.7077 9.28339 17.7077 9.91656 17.3171 10.3071L11.7771 15.8471C11.3866 16.2376 10.7534 16.2376 10.3629 15.8471L4.82292 10.3071C4.4324 9.91656 4.4324 9.28339 4.82292 8.89287Z" fill="#3D7BBF"/>
<path fill-rule="evenodd" clip-rule="evenodd" d="M11.07 0.319946C11.6223 0.319946 12.07 0.767662 12.07 1.31995V15.1399C12.07 15.6922 11.6223 16.1399 11.07 16.1399C10.5177 16.1399 10.07 15.6922 10.07 15.1399V1.31995C10.07 0.767662 10.5177 0.319946 11.07 0.319946Z" fill="#3D7BBF"/>
<path fill-rule="evenodd" clip-rule="evenodd" d="M20.54 12.5199C21.0923 12.5199 21.54 12.9676 21.54 13.5199V18.0499C21.54 19.0126 21.1576 19.9359 20.4768 20.6167C19.7961 21.2975 18.8728 21.6799 17.91 21.6799H4.09002C3.12729 21.6799 2.20398 21.2975 1.52322 20.6167C0.842467 19.9359 0.460022 19.0126 0.460022 18.0499V13.8399C0.460022 13.2876 0.907737 12.8399 1.46002 12.8399C2.01231 12.8399 2.46002 13.2876 2.46002 13.8399V18.0499C2.46002 18.4822 2.63175 18.8968 2.93744 19.2025C3.24312 19.5082 3.65772 19.6799 4.09002 19.6799H17.91C18.3423 19.6799 18.7569 19.5082 19.0626 19.2025C19.3683 18.8968 19.54 18.4822 19.54 18.0499V13.5199C19.54 12.9676 19.9877 12.5199 20.54 12.5199Z" fill="#3D7BBF"/>
</svg>
