<svg width="48" height="33" viewBox="0 0 48 33" fill="none" xmlns="http://www.w3.org/2000/svg">
<path fill-rule="evenodd" clip-rule="evenodd" d="M43.93 22.26C43.93 21.9839 44.1539 21.76 44.43 21.76H46.62C46.8962 21.76 47.12 21.9839 47.12 22.26C47.12 22.5362 46.8962 22.76 46.62 22.76H44.43C44.1539 22.76 43.93 22.5362 43.93 22.26Z" fill="#3D7BBF"/>
<path fill-rule="evenodd" clip-rule="evenodd" d="M11.33 24.16C9.39702 24.16 7.83002 25.727 7.83002 27.66C7.83002 29.593 9.39702 31.16 11.33 31.16C13.263 31.16 14.83 29.593 14.83 27.66C14.83 25.727 13.263 24.16 11.33 24.16ZM6.83002 27.66C6.83002 25.1747 8.84474 23.16 11.33 23.16C13.8153 23.16 15.83 25.1747 15.83 27.66C15.83 30.1453 13.8153 32.16 11.33 32.16C8.84474 32.16 6.83002 30.1453 6.83002 27.66Z" fill="#3D7BBF"/>
<path fill-rule="evenodd" clip-rule="evenodd" d="M39.28 24.16C37.347 24.16 35.78 25.727 35.78 27.66C35.78 29.593 37.347 31.16 39.28 31.16C41.213 31.16 42.78 29.593 42.78 27.66C42.78 25.727 41.213 24.16 39.28 24.16ZM34.78 27.66C34.78 25.1747 36.7947 23.16 39.28 23.16C41.7653 23.16 43.78 25.1747 43.78 27.66C43.78 30.1453 41.7653 32.16 39.28 32.16C36.7947 32.16 34.78 30.1453 34.78 27.66Z" fill="#3D7BBF"/>
<path fill-rule="evenodd" clip-rule="evenodd" d="M15.22 26.18H35.4V27.18H15.22V26.18Z" fill="#3D7BBF"/>
<path fill-rule="evenodd" clip-rule="evenodd" d="M21.6767 0.039978H39.5823L45.14 5.79804V10.87C45.14 11.1511 45.0283 11.4207 44.8295 11.6195C44.6308 11.8183 44.3611 11.93 44.08 11.93H39.978L41.9683 17.7876L46.2325 19.9773C46.634 20.1882 46.9706 20.5044 47.2062 20.8919C47.4418 21.2794 47.5676 21.7238 47.57 22.1773L47.57 22.18L47.57 25C47.57 25.5755 47.3414 26.1274 46.9344 26.5344C46.5275 26.9414 45.9755 27.17 45.4 27.17H43.16V26.17H45.4C45.7103 26.17 46.0079 26.0467 46.2273 25.8273C46.4467 25.6079 46.57 25.3103 46.57 25V22.1813C46.5683 21.9097 46.4929 21.6435 46.3518 21.4114C46.2108 21.1794 46.0095 20.9901 45.7693 20.8636C45.7687 20.8633 45.7681 20.863 45.7675 20.8626L41.1517 18.4924L38.582 10.93H44.08C44.0959 10.93 44.1112 10.9237 44.1224 10.9124C44.1337 10.9012 44.14 10.8859 44.14 10.87V6.20192L39.1577 1.03998H21.9433L12.4333 6.49998H2.59144C2.28731 6.50191 1.99565 6.6212 1.77733 6.83299C1.56066 7.04317 1.43286 7.32831 1.42001 7.62969V25L1.42 25.003C1.41908 25.1572 1.44866 25.3101 1.50705 25.4529C1.56543 25.5956 1.65147 25.7254 1.7602 25.8348C1.86894 25.9442 1.99823 26.031 2.14064 26.0903C2.28305 26.1495 2.43577 26.18 2.59 26.18H7.45001V27.18H2.59002C2.30396 27.18 2.02071 27.1234 1.75659 27.0136C1.49246 26.9037 1.25266 26.7427 1.05099 26.5398C0.849312 26.3369 0.689743 26.0962 0.581459 25.8314C0.473375 25.5671 0.418513 25.2841 0.420013 24.9986C0.420016 24.998 0.420019 24.9975 0.420022 24.997L0.920013 25H0.420013V24.9986V7.61105L0.420332 7.60213C0.44042 7.03979 0.677167 6.50701 1.08105 6.11521C1.48494 5.72342 2.02467 5.50298 2.58736 5.49999L2.59001 5.49997L12.1667 5.49998L12.0511 5.56636L12.3 5.99998V5.49998H12.1667L21.6767 0.039978Z" fill="#3D7BBF"/>
<path fill-rule="evenodd" clip-rule="evenodd" d="M34.6273 11.0156C34.7216 10.9218 34.8493 10.8694 34.9823 10.87L39.2823 10.89C39.4955 10.891 39.6847 11.0271 39.7534 11.2289L42.0334 17.9289C42.0853 18.0816 42.0604 18.25 41.9665 18.3811C41.8727 18.5122 41.7213 18.59 41.56 18.59H34.98C34.7039 18.59 34.48 18.3661 34.48 18.09V11.37C34.48 11.237 34.533 11.1095 34.6273 11.0156ZM35.48 11.8723V17.59H40.8617L38.9214 11.8883L35.48 11.8723Z" fill="#3D7BBF"/>
<path fill-rule="evenodd" clip-rule="evenodd" d="M6.83002 11.67C6.83002 11.3938 7.05387 11.17 7.33002 11.17H16.66C16.9362 11.17 17.16 11.3938 17.16 11.67V16.33C17.16 16.6061 16.9362 16.83 16.66 16.83H7.33002C7.05387 16.83 6.83002 16.6061 6.83002 16.33V11.67ZM7.83002 12.17V15.83H16.16V12.17H7.83002Z" fill="#3D7BBF"/>
<path fill-rule="evenodd" clip-rule="evenodd" d="M22.6 11.67C22.6 11.3938 22.8239 11.17 23.1 11.17H30.49C30.7661 11.17 30.99 11.3938 30.99 11.67V26.68C30.99 26.9561 30.7661 27.18 30.49 27.18H23.1C22.8239 27.18 22.6 26.9561 22.6 26.68V11.67ZM23.6 12.17V26.18H29.99V12.17H23.6Z" fill="#3D7BBF"/>
</svg>
