<svg width="48" height="22" viewBox="0 0 48 22" fill="none" xmlns="http://www.w3.org/2000/svg">
<path fill-rule="evenodd" clip-rule="evenodd" d="M9.83002 13.11C7.89702 13.11 6.33002 14.677 6.33002 16.61C6.33002 18.543 7.89702 20.11 9.83002 20.11C11.763 20.11 13.33 18.543 13.33 16.61C13.33 14.677 11.763 13.11 9.83002 13.11ZM5.33002 16.61C5.33002 14.1247 7.34474 12.11 9.83002 12.11C12.3153 12.11 14.33 14.1247 14.33 16.61C14.33 19.0953 12.3153 21.11 9.83002 21.11C7.34474 21.11 5.33002 19.0953 5.33002 16.61Z" fill="#3D7BBF"/>
<path fill-rule="evenodd" clip-rule="evenodd" d="M39.1 13.11C37.167 13.11 35.6 14.677 35.6 16.61C35.6 18.543 37.167 20.11 39.1 20.11C41.033 20.11 42.6 18.543 42.6 16.61C42.6 14.677 41.033 13.11 39.1 13.11ZM34.6 16.61C34.6 14.1247 36.6148 12.11 39.1 12.11C41.5853 12.11 43.6 14.1247 43.6 16.61C43.6 19.0953 41.5853 21.11 39.1 21.11C36.6148 21.11 34.6 19.0953 34.6 16.61Z" fill="#3D7BBF"/>
<path fill-rule="evenodd" clip-rule="evenodd" d="M44.47 11.3C44.47 11.0238 44.6939 10.8 44.97 10.8H47.16C47.4362 10.8 47.66 11.0238 47.66 11.3C47.66 11.5761 47.4362 11.8 47.16 11.8H44.97C44.6939 11.8 44.47 11.5761 44.47 11.3Z" fill="#3D7BBF"/>
<path fill-rule="evenodd" clip-rule="evenodd" d="M0.350037 15.11C0.350037 14.8338 0.573894 14.61 0.850037 14.61H3.04004C3.31618 14.61 3.54004 14.8338 3.54004 15.11C3.54004 15.3861 3.31618 15.61 3.04004 15.61H0.850037C0.573894 15.61 0.350037 15.3861 0.350037 15.11Z" fill="#3D7BBF"/>
<path fill-rule="evenodd" clip-rule="evenodd" d="M13.53 17.6H35.39V18.6H13.53V17.6Z" fill="#3D7BBF"/>
<path fill-rule="evenodd" clip-rule="evenodd" d="M2.47002 0.890015H4.29002V6.00001C4.29002 6.30767 4.41224 6.60272 4.62978 6.82026C4.84732 7.0378 5.14237 7.16001 5.45002 7.16001H23.21C23.5177 7.16001 23.8127 7.0378 24.0303 6.82026C24.2478 6.60272 24.37 6.30766 24.37 6.00001V0.890015H28.17V5.84001C28.17 6.14767 28.2922 6.44272 28.5098 6.66026C28.7273 6.8778 29.0224 7.00001 29.33 7.00001H38.8516L45.4894 8.93984C45.4895 8.93987 45.4893 8.93982 45.4894 8.93984C46.1522 9.13231 46.7349 9.53459 47.1497 10.0862C47.5645 10.6378 47.7892 11.3092 47.79 11.9994V16.32C47.79 16.9194 47.5519 17.4942 47.1281 17.9181C46.7043 18.3419 46.1294 18.58 45.53 18.58H42.81V17.58H45.53C45.8642 17.58 46.1847 17.4473 46.421 17.211C46.6573 16.9747 46.79 16.6542 46.79 16.32V12.0006C46.7894 11.5268 46.6352 11.0659 46.3504 10.6872C46.0656 10.3084 45.6657 10.0323 45.2106 9.90019L38.7085 8.00001H29.33C28.7572 8.00001 28.2078 7.77244 27.8027 7.36737C27.3976 6.96229 27.17 6.41288 27.17 5.84001V1.89001H25.37V6.00001C25.37 6.57288 25.1425 7.12229 24.7374 7.52737C24.3323 7.93244 23.7829 8.16001 23.21 8.16001H5.45002C4.87715 8.16001 4.32775 7.93244 3.92267 7.52737C3.51759 7.12229 3.29002 6.57288 3.29002 6.00001V1.89001H2.47155C2.13767 1.89223 1.81808 2.02585 1.58197 2.26196C1.34585 2.49808 1.21224 2.81767 1.21002 3.15154V16.34C1.21002 16.6742 1.34277 16.9947 1.57907 17.231C1.81536 17.4673 2.13585 17.6 2.47002 17.6H6.12002V18.6H2.47002C1.87063 18.6 1.29579 18.3619 0.871961 17.9381C0.448129 17.5142 0.210022 16.9394 0.210022 16.34V3.1472C0.213389 2.5496 0.452287 1.97743 0.874862 1.55485C1.29744 1.13228 1.8696 0.893389 2.46721 0.890023L2.47002 0.890015Z" fill="#3D7BBF"/>
<path fill-rule="evenodd" clip-rule="evenodd" d="M3.29004 0.890015H25.37V6.00001C25.37 6.57288 25.1425 7.12229 24.7374 7.52737C24.3323 7.93244 23.7829 8.16001 23.21 8.16001H5.45004C4.87717 8.16001 4.32777 7.93244 3.92269 7.52737C3.51761 7.12229 3.29004 6.57288 3.29004 6.00001V0.890015ZM4.29004 1.89001V6.00001C4.29004 6.30767 4.41225 6.60272 4.6298 6.82026C4.84734 7.0378 5.14239 7.16001 5.45004 7.16001H23.21C23.5177 7.16001 23.8127 7.0378 24.0303 6.82026C24.2478 6.60271 24.37 6.30766 24.37 6.00001V1.89001H4.29004Z" fill="#3D7BBF"/>
<path fill-rule="evenodd" clip-rule="evenodd" d="M27.17 0.890015H30.8416C31.5984 0.892335 32.3466 1.05082 33.0393 1.35556C33.7309 1.65976 34.3523 2.10318 34.8649 2.65814L39.9456 8.00001H29.33C28.7572 8.00001 28.2078 7.77244 27.8027 7.36737C27.3976 6.96229 27.17 6.41288 27.17 5.84001V0.890015ZM28.17 1.89001V5.84001C28.17 6.14767 28.2923 6.44272 28.5098 6.66026C28.7273 6.8778 29.0224 7.00001 29.33 7.00001H37.6144L34.1325 3.33905C33.7126 2.88389 33.2035 2.52023 32.6367 2.27091C32.0701 2.02168 31.4582 1.89202 30.8393 1.89001H28.17Z" fill="#3D7BBF"/>
<path fill-rule="evenodd" clip-rule="evenodd" d="M3.29004 0.890015H25.37V6.00001C25.37 6.57288 25.1425 7.12229 24.7374 7.52737C24.3323 7.93244 23.7829 8.16001 23.21 8.16001H5.45004C4.87717 8.16001 4.32777 7.93244 3.92269 7.52737C3.51761 7.12229 3.29004 6.57288 3.29004 6.00001V0.890015ZM4.29004 1.89001V6.00001C4.29004 6.30767 4.41225 6.60272 4.6298 6.82026C4.84734 7.0378 5.14239 7.16001 5.45004 7.16001H23.21C23.5177 7.16001 23.8127 7.0378 24.0303 6.82026C24.2478 6.60271 24.37 6.30766 24.37 6.00001V1.89001H4.29004Z" fill="#3D7BBF"/>
<path fill-rule="evenodd" clip-rule="evenodd" d="M27.17 0.890015H30.8416C31.5984 0.892335 32.3466 1.05082 33.0393 1.35556C33.7309 1.65976 34.3523 2.10318 34.8649 2.65814L39.9456 8.00001H29.33C28.7572 8.00001 28.2078 7.77244 27.8027 7.36737C27.3976 6.96229 27.17 6.41288 27.17 5.84001V0.890015ZM28.17 1.89001V5.84001C28.17 6.14767 28.2923 6.44272 28.5098 6.66026C28.7273 6.8778 29.0224 7.00001 29.33 7.00001H37.6144L34.1325 3.33905C33.7126 2.88389 33.2035 2.52023 32.6367 2.27091C32.0701 2.02168 31.4582 1.89202 30.8393 1.89001H28.17Z" fill="#3D7BBF"/>
<path fill-rule="evenodd" clip-rule="evenodd" d="M27.17 0.890015H30.8416C31.5984 0.892335 32.3466 1.05082 33.0393 1.35556C33.7309 1.65976 34.3523 2.10318 34.8649 2.65814L39.9456 8.00001H29.33C28.7572 8.00001 28.2078 7.77244 27.8027 7.36737C27.3976 6.96229 27.17 6.41288 27.17 5.84001V0.890015ZM28.17 1.89001V5.84001C28.17 6.14767 28.2923 6.44272 28.5098 6.66026C28.7273 6.8778 29.0224 7.00001 29.33 7.00001H37.6144L34.1325 3.33905C33.7126 2.88389 33.2035 2.52023 32.6367 2.27091C32.0701 2.02168 31.4582 1.89202 30.8393 1.89001H28.17Z" fill="#3D7BBF"/>
<path fill-rule="evenodd" clip-rule="evenodd" d="M13.83 7.51001V1.39001H14.83V7.51001H13.83Z" fill="#3D7BBF"/>
<path fill-rule="evenodd" clip-rule="evenodd" d="M45.23 15.11C45.23 14.8338 45.4539 14.61 45.73 14.61H47.28C47.5562 14.61 47.78 14.8338 47.78 15.11C47.78 15.3861 47.5562 15.61 47.28 15.61H45.73C45.4539 15.61 45.23 15.3861 45.23 15.11Z" fill="#3D7BBF"/>
</svg>
