<svg width="32" height="16" viewBox="0 0 32 16" fill="none" xmlns="http://www.w3.org/2000/svg">
<path fill-rule="evenodd" clip-rule="evenodd" d="M10.42 7.85004C8.48699 7.85004 6.91998 9.41704 6.91998 11.35C6.91998 13.283 8.48699 14.85 10.42 14.85C12.353 14.85 13.92 13.283 13.92 11.35C13.92 9.41704 12.353 7.85004 10.42 7.85004ZM5.91998 11.35C5.91998 8.86476 7.9347 6.85004 10.42 6.85004C12.9053 6.85004 14.92 8.86476 14.92 11.35C14.92 13.8353 12.9053 15.85 10.42 15.85C7.9347 15.85 5.91998 13.8353 5.91998 11.35Z" fill="#3D7BBF"/>
<path fill-rule="evenodd" clip-rule="evenodd" d="M0.409973 0.650024C0.409973 0.373882 0.633831 0.150024 0.909973 0.150024H22.09C22.3661 0.150024 22.59 0.373882 22.59 0.650024V9.85003C22.59 10.1262 22.3661 10.35 22.09 10.35H14.09V9.35003H21.59V1.15002H1.40997V8.53003C1.40997 8.63823 1.43138 8.74539 1.47298 8.84528C1.51458 8.94517 1.57553 9.03585 1.65234 9.11207C1.72914 9.1883 1.82027 9.24857 1.92048 9.28941C2.02068 9.33025 2.12798 9.35086 2.23619 9.35004L2.23997 9.35001L6.70997 9.35003V10.35H2.24172C2.00225 10.3516 1.76482 10.3058 1.54304 10.2154C1.32064 10.1248 1.11837 9.99103 0.947905 9.82184C0.777439 9.65266 0.642144 9.45141 0.54982 9.22969C0.457497 9.00798 0.409968 8.77019 0.409973 8.53003C0.409973 8.53002 0.409973 8.53003 0.409973 8.53003V0.650024Z" fill="#3D7BBF"/>
<path fill-rule="evenodd" clip-rule="evenodd" d="M21.59 9.85004C21.59 9.57389 21.8138 9.35004 22.09 9.35004H31.09C31.3661 9.35004 31.59 9.57389 31.59 9.85004C31.59 10.1262 31.3661 10.35 31.09 10.35H22.09C21.8138 10.35 21.59 10.1262 21.59 9.85004Z" fill="#3D7BBF"/>
<path fill-rule="evenodd" clip-rule="evenodd" d="M28.11 9.35004C28.3861 9.35004 28.61 9.57389 28.61 9.85004V15.26C28.61 15.5362 28.3861 15.76 28.11 15.76C27.8338 15.76 27.61 15.5362 27.61 15.26V9.85004C27.61 9.57389 27.8338 9.35004 28.11 9.35004Z" fill="#3D7BBF"/>
</svg>
