<svg width="128" height="67" viewBox="0 0 128 67" fill="none" xmlns="http://www.w3.org/2000/svg">
<path d="M127.727 24.8639L115.459 6.10692C114.266 4.24356 112.626 2.7085 110.688 1.64177C108.75 0.57505 106.575 0.0106282 104.363 0L28.0265 0C25.4447 0.0226553 22.934 0.84857 20.843 2.36308C18.752 3.87759 17.1844 6.00556 16.3579 8.45154L13.1681 17.9936C12.9258 16.6893 12.2338 15.5113 11.2127 14.6645C10.1915 13.8177 8.90578 13.3557 7.57919 13.3589H5.69804C4.94747 13.3589 4.2043 13.5072 3.51121 13.7952C2.81811 14.0833 2.18876 14.5054 1.65929 15.0374C1.12983 15.5694 0.71069 16.2008 0.425948 16.8952C0.141206 17.5897 -0.00352601 18.3336 6.52286e-05 19.0841V32.1704C4.80662e-05 33.6841 0.599497 35.1362 1.6673 36.2091C2.7351 37.282 4.18434 37.8884 5.69804 37.8956H7.57919C8.76198 37.9149 9.92243 37.5725 10.9053 36.9142V49.8368C10.9197 51.4904 11.5866 53.0714 12.761 54.2355C13.9354 55.3997 15.5221 56.0529 17.1758 56.0528H22.0013C22.3474 59.0277 23.7744 61.7718 26.0111 63.7635C28.2479 65.7551 31.1384 66.8556 34.1334 66.8556C37.1284 66.8556 40.0189 65.7551 42.2557 63.7635C44.4924 61.7718 45.9194 59.0277 46.2655 56.0528H87.7598C88.1058 59.0277 89.5328 61.7718 91.7696 63.7635C94.0063 65.7551 96.8969 66.8556 99.8919 66.8556C102.887 66.8556 105.777 65.7551 108.014 63.7635C110.251 61.7718 111.678 59.0277 112.024 56.0528H121.73C122.561 56.0672 123.387 55.9168 124.161 55.6102C124.934 55.3036 125.638 54.8469 126.234 54.2664C126.83 53.6859 127.305 52.9932 127.631 52.2283C127.958 51.4633 128.129 50.6413 128.136 49.8096V25.6273C128.097 25.3316 127.952 25.0602 127.727 24.8639ZM18.8661 9.32396C19.5178 7.40854 20.7503 5.74383 22.392 4.56137C24.0338 3.37891 26.0032 2.73748 28.0265 2.7263H104.363C106.125 2.72908 107.858 3.17193 109.406 4.01464C110.953 4.85735 112.265 6.07323 113.223 7.55186L124.129 24.2641H84.8427H50.0823H13.986L18.8661 9.32396ZM10.6872 32.1704C10.6908 32.5629 10.6166 32.9523 10.4688 33.316C10.3211 33.6797 10.1028 34.0105 9.8265 34.2893C9.55019 34.5682 9.22138 34.7895 8.85905 34.9405C8.49672 35.0916 8.10806 35.1693 7.71551 35.1693H5.69804C5.30549 35.1693 4.91683 35.0916 4.5545 34.9405C4.19217 34.7895 3.86336 34.5682 3.58705 34.2893C3.31075 34.0105 3.09243 33.6797 2.9447 33.316C2.79697 32.9523 2.72277 32.5629 2.72637 32.1704V19.0841C2.71906 18.6906 2.79073 18.2996 2.93714 17.9342C3.08355 17.5689 3.30173 17.2366 3.57878 16.957C3.85582 16.6774 4.18611 16.4562 4.55012 16.3065C4.91412 16.1567 5.30446 16.0815 5.69804 16.0852H7.57919C7.97278 16.0815 8.36311 16.1567 8.72712 16.3065C9.09112 16.4562 9.42141 16.6774 9.69846 16.957C9.9755 17.2366 10.1937 17.5689 10.3401 17.9342C10.4865 18.2996 10.5582 18.6906 10.5509 19.0841L10.6872 32.1704ZM34.2697 64.1499C32.3783 64.1877 30.5183 63.6624 28.9261 62.6408C27.3339 61.6191 26.0813 60.1472 25.3275 58.4121C24.5736 56.677 24.3526 54.757 24.6923 52.896C25.0321 51.035 25.9174 49.3169 27.2357 47.9601C28.5541 46.6034 30.246 45.6691 32.0965 45.276C33.947 44.8829 35.8726 45.0487 37.6286 45.7524C39.3846 46.4561 40.8919 47.6659 41.9589 49.2281C43.0258 50.7903 43.6044 52.6344 43.6209 54.5261C43.6317 55.7815 43.3947 57.0266 42.9234 58.1902C42.4521 59.3538 41.7558 60.413 40.8744 61.307C39.9931 62.201 38.944 62.9123 37.7872 63.4002C36.6305 63.888 35.3888 64.1428 34.1334 64.1499H34.2697ZM46.4018 53.2447C46.1152 50.2256 44.7132 47.4217 42.4697 45.3811C40.2262 43.3405 37.3024 42.2097 34.2697 42.2097C31.237 42.2097 28.3132 43.3405 26.0697 45.3811C23.8262 47.4217 22.4242 50.2256 22.1377 53.2447H17.0395C16.1419 53.2106 15.2907 52.8369 14.6581 52.1992C14.0255 51.5615 13.6586 50.7074 13.6316 49.8096V47.2469H17.9937C18.3552 47.2469 18.7019 47.1032 18.9576 46.8476C19.2132 46.592 19.3568 46.2452 19.3568 45.8837C19.3568 45.5222 19.2132 45.1754 18.9576 44.9198C18.7019 44.6642 18.3552 44.5205 17.9937 44.5205H13.6316V26.9904H50.0823V53.2447H46.4018ZM52.9449 53.2447V26.9904H82.1164V53.2447H52.9449ZM100.028 64.1499C98.1409 64.1499 96.2961 63.5903 94.7269 62.5418C93.1577 61.4933 91.9347 60.0031 91.2125 58.2595C90.4902 56.5159 90.3013 54.5973 90.6695 52.7463C91.0377 50.8953 91.9464 49.1951 93.2809 47.8606C94.6154 46.5261 96.3156 45.6173 98.1666 45.2492C100.018 44.881 101.936 45.0699 103.68 45.7922C105.423 46.5144 106.914 47.7374 107.962 49.3066C109.011 50.8758 109.57 52.7206 109.57 54.6079C109.57 55.8725 109.319 57.1246 108.831 58.2912C108.343 59.4579 107.628 60.5159 106.727 61.4038C105.827 62.2917 104.759 62.9917 103.585 63.4631C102.412 63.9345 101.156 64.168 99.8919 64.1499H100.028ZM121.839 53.2447H112.024C111.678 50.2698 110.251 47.5257 108.014 45.5341C105.777 43.5424 102.887 42.442 99.8919 42.442C96.8969 42.442 94.0063 43.5424 91.7696 45.5341C89.5328 47.5257 88.1058 50.2698 87.7598 53.2447H84.8427V26.9904H125.41V34.7059H120.557C120.196 34.7059 119.849 34.8495 119.593 35.1051C119.338 35.3608 119.194 35.7075 119.194 36.069C119.194 36.4305 119.338 36.7773 119.593 37.0329C119.849 37.2885 120.196 37.4322 120.557 37.4322H125.41V44.5205H122.684C122.322 44.5205 121.976 44.6642 121.72 44.9198C121.464 45.1754 121.321 45.5222 121.321 45.8837C121.321 46.2452 121.464 46.592 121.72 46.8476C121.976 47.1032 122.322 47.2469 122.684 47.2469H125.41V49.7823C125.396 50.2538 125.289 50.7178 125.094 51.1475C124.9 51.5773 124.622 51.9643 124.278 52.2862C123.933 52.6081 123.528 52.8586 123.086 53.0231C122.644 53.1876 122.174 53.2629 121.702 53.2447H121.839Z" fill="#2169DE"/>
<path d="M56.7072 21.3197H78.5176C79.4431 21.3197 80.3308 20.9521 80.9852 20.2976C81.6396 19.6432 82.0073 18.7556 82.0073 17.8301V9.26946C82.0073 8.34394 81.6396 7.45633 80.9852 6.80189C80.3308 6.14745 79.4431 5.77979 78.5176 5.77979H56.7072C55.7817 5.77979 54.8941 6.14745 54.2396 6.80189C53.5852 7.45633 53.2175 8.34394 53.2175 9.26946V17.8301C53.2175 18.7556 53.5852 19.6432 54.2396 20.2976C54.8941 20.9521 55.7817 21.3197 56.7072 21.3197ZM55.9438 9.26946C55.9506 9.06916 56.0332 8.87892 56.1749 8.73721C56.3167 8.59549 56.5069 8.51289 56.7072 8.50609H78.5176C78.7179 8.51289 78.9082 8.59549 79.0499 8.73721C79.1916 8.87892 79.2742 9.06916 79.281 9.26946V17.8301C79.281 17.9303 79.2613 18.0296 79.2229 18.1222C79.1845 18.2148 79.1283 18.2989 79.0574 18.3698C78.9865 18.4407 78.9024 18.4969 78.8098 18.5353C78.7171 18.5737 78.6179 18.5934 78.5176 18.5934H56.7072C56.5047 18.5934 56.3106 18.513 56.1674 18.3698C56.0243 18.2267 55.9438 18.0325 55.9438 17.8301V9.26946Z" fill="#2169DE"/>
<path d="M23.4462 21.1562C23.7987 21.2686 24.1669 21.3238 24.5368 21.3197H46.02C46.9264 21.3198 47.796 20.9616 48.4395 20.3233C49.0829 19.6849 49.448 18.8182 49.4552 17.9119V9.13317C49.4264 8.22557 49.045 7.36494 48.3919 6.73402C48.0708 6.42227 47.6909 6.17739 47.2744 6.01359C46.8579 5.84978 46.413 5.77032 45.9655 5.77981H30.5892C29.0038 5.79246 27.4563 6.26561 26.1349 7.1417C24.8135 8.01778 23.7752 9.25903 23.1464 10.7144L20.8835 16.3579C20.5831 17.3485 20.6832 18.4175 21.1624 19.3351C21.6416 20.2527 22.4616 20.9457 23.4462 21.2652V21.1562ZM23.4462 17.1758L25.6546 11.7232C26.0843 10.7529 26.7878 9.92914 27.6789 9.35286C28.57 8.77658 29.6098 8.47283 30.671 8.47885H46.1018C46.1985 8.47797 46.2943 8.49687 46.3834 8.53437C46.4725 8.57188 46.5529 8.62721 46.6198 8.69696C46.6835 8.75141 46.7356 8.81807 46.773 8.89299C46.8105 8.96791 46.8326 9.04958 46.8379 9.13317V17.9119C46.8386 18.0087 46.8187 18.1046 46.7795 18.1931C46.7402 18.2816 46.6825 18.3607 46.6103 18.4252C46.5381 18.4897 46.453 18.5381 46.3606 18.5671C46.2682 18.5961 46.1707 18.6051 46.0746 18.5934H24.5368C24.4202 18.6203 24.299 18.6203 24.1824 18.5934C24.0339 18.5452 23.8968 18.4671 23.7796 18.364C23.6624 18.2608 23.5675 18.1348 23.5008 17.9937C23.438 17.8677 23.4009 17.7306 23.3915 17.5902C23.3822 17.4498 23.4008 17.3089 23.4462 17.1758Z" fill="#2169DE"/>
<path d="M88.3867 21.2106H111.342C111.799 21.1966 112.249 21.0921 112.666 20.9033C113.082 20.7144 113.457 20.4449 113.769 20.1103C114.081 19.7757 114.323 19.3826 114.482 18.9538C114.641 18.525 114.714 18.0689 114.696 17.6119C114.69 16.9555 114.48 16.3172 114.096 15.7853L109.052 8.86047C108.31 7.88667 107.353 7.09718 106.256 6.55341C105.159 6.00963 103.951 5.72622 102.727 5.72522H88.4685C87.5571 5.73223 86.6846 6.09555 86.0376 6.73748C85.3905 7.37942 85.0203 8.24903 85.0061 9.16036V17.8027C85.0266 18.6955 85.3885 19.5463 86.0174 20.1803C86.6463 20.8142 87.4942 21.183 88.3867 21.2106ZM87.7324 9.18763C87.7324 8.9924 87.81 8.80517 87.948 8.66712C88.0861 8.52908 88.2733 8.45152 88.4685 8.45152H102.673C103.479 8.44195 104.277 8.62199 105.002 8.97715C105.726 9.3323 106.357 9.85264 106.844 10.4963L111.778 17.2848C111.816 17.4185 111.816 17.5599 111.778 17.6937C111.786 17.789 111.774 17.8848 111.743 17.9754C111.713 18.066 111.664 18.1495 111.6 18.2208C111.537 18.2921 111.459 18.3498 111.373 18.3904C111.286 18.431 111.192 18.4537 111.097 18.4571H88.4412C88.2507 18.4534 88.0674 18.3832 87.9231 18.2588C87.7787 18.1344 87.6824 17.9634 87.6506 17.7755L87.7324 9.18763Z" fill="#2169DE"/>
</svg>
