<svg width="46" height="24" viewBox="0 0 46 24" fill="none" xmlns="http://www.w3.org/2000/svg">
<path fill-rule="evenodd" clip-rule="evenodd" d="M11.19 15.88C9.25701 15.88 7.69 17.447 7.69 19.38C7.69 21.313 9.25701 22.88 11.19 22.88C13.123 22.88 14.69 21.313 14.69 19.38C14.69 17.447 13.123 15.88 11.19 15.88ZM6.69 19.38C6.69 16.8947 8.70472 14.88 11.19 14.88C13.6753 14.88 15.69 16.8947 15.69 19.38C15.69 21.8653 13.6753 23.88 11.19 23.88C8.70472 23.88 6.69 21.8653 6.69 19.38Z" fill="#3D7BBF"/>
<path fill-rule="evenodd" clip-rule="evenodd" d="M34.96 15.88C33.027 15.88 31.46 17.447 31.46 19.38C31.46 21.313 33.027 22.88 34.96 22.88C36.893 22.88 38.46 21.313 38.46 19.38C38.46 17.447 36.893 15.88 34.96 15.88ZM30.46 19.38C30.46 16.8947 32.4747 14.88 34.96 14.88C37.4453 14.88 39.46 16.8947 39.46 19.38C39.46 21.8653 37.4453 23.88 34.96 23.88C32.4747 23.88 30.46 21.8653 30.46 19.38Z" fill="#3D7BBF"/>
<path fill-rule="evenodd" clip-rule="evenodd" d="M42.44 16.3C42.44 16.0238 42.6639 15.8 42.94 15.8H45.13C45.4061 15.8 45.63 16.0238 45.63 16.3C45.63 16.5761 45.4061 16.8 45.13 16.8H42.94C42.6639 16.8 42.44 16.5761 42.44 16.3Z" fill="#3D7BBF"/>
<path fill-rule="evenodd" clip-rule="evenodd" d="M0.210022 16.3C0.210022 16.0238 0.43388 15.8 0.710022 15.8H2.90002C3.17616 15.8 3.40002 16.0238 3.40002 16.3C3.40002 16.5761 3.17616 16.8 2.90002 16.8H0.710022C0.43388 16.8 0.210022 16.5761 0.210022 16.3Z" fill="#3D7BBF"/>
<path fill-rule="evenodd" clip-rule="evenodd" d="M1.88002 1.12C1.70233 1.12 1.53191 1.19058 1.40626 1.31623C1.28061 1.44188 1.21002 1.6123 1.21002 1.79V18.21C1.21002 18.3877 1.28061 18.5581 1.40626 18.6838C1.53191 18.8094 1.70232 18.88 1.88002 18.88H7.19002V19.88H1.88002C1.43711 19.88 1.01234 19.7041 0.699154 19.3909C0.385967 19.0777 0.210022 18.6529 0.210022 18.21V1.79C0.210022 1.34708 0.385968 0.922312 0.699154 0.609126C1.01234 0.29594 1.43711 0.119995 1.88002 0.119995H39.82C40.2406 0.120796 40.6527 0.244348 41.004 0.475491C41.3554 0.706634 41.6316 1.03531 41.7988 1.4212L41.8008 1.42592L45.4623 10.1194C45.6781 10.6428 45.7894 11.2033 45.79 11.7695V18.21C45.79 18.4293 45.7468 18.6465 45.6629 18.8491C45.579 19.0517 45.456 19.2358 45.3009 19.3909C45.1458 19.5459 44.9617 19.6689 44.7591 19.7529C44.5565 19.8368 44.3393 19.88 44.12 19.88H39V18.88H44.12C44.208 18.88 44.2951 18.8627 44.3764 18.829C44.4577 18.7953 44.5316 18.746 44.5938 18.6838C44.656 18.6215 44.7053 18.5477 44.739 18.4664C44.7727 18.3851 44.79 18.298 44.79 18.21V11.7705C44.7896 11.3354 44.7041 10.9046 44.5385 10.5022C44.5382 10.5017 44.538 10.5012 44.5378 10.5006L40.8812 1.81879C40.8809 1.81811 40.8807 1.81743 40.8804 1.81676C40.7905 1.6104 40.6425 1.43464 40.4544 1.31091C40.2659 1.18685 40.0452 1.12051 39.8195 1.12H1.88002Z" fill="#3D7BBF"/>
<path fill-rule="evenodd" clip-rule="evenodd" d="M15.19 18.88H30.96V19.88H15.19V18.88Z" fill="#3D7BBF"/>
<path fill-rule="evenodd" clip-rule="evenodd" d="M0.210022 3.21997H37.69V12.1H0.210022V3.21997ZM1.21002 4.21997V11.1H36.69V4.21997H1.21002Z" fill="#3D7BBF"/>
<path fill-rule="evenodd" clip-rule="evenodd" d="M7.44 3.21997H15.69V12.1H7.44V3.21997ZM8.44 4.21997V11.1H14.69V4.21997H8.44Z" fill="#3D7BBF"/>
<path fill-rule="evenodd" clip-rule="evenodd" d="M22.08 3.21997H30.33V12.1H22.08V3.21997ZM23.08 4.21997V11.1H29.33V4.21997H23.08Z" fill="#3D7BBF"/>
<path fill-rule="evenodd" clip-rule="evenodd" d="M36.69 3.21997H42.22C42.4961 3.21997 42.72 3.44383 42.72 3.71997C42.72 3.99611 42.4961 4.21997 42.22 4.21997H37.69V11.3196L39.9807 12.72H45.29C45.5661 12.72 45.79 12.9438 45.79 13.22C45.79 13.4961 45.5661 13.72 45.29 13.72H39.6993L36.69 11.8803V3.21997Z" fill="#3D7BBF"/>
<path fill-rule="evenodd" clip-rule="evenodd" d="M37.69 11.6V16.06H36.69V11.6H37.69Z" fill="#3D7BBF"/>
</svg>
