<svg width="128" height="48" viewBox="0 0 128 48" fill="none" xmlns="http://www.w3.org/2000/svg">
<path d="M97.4688 14.527H92.582L76.1592 4.64657C71.0805 1.59147 65.2626 -0.0153983 59.3358 0.00011122H43.4471C40.6313 5.90414e-05 37.844 0.56297 35.249 1.65575L15.0609 10.0941H9.02588C7.84409 10.0906 6.67318 10.3199 5.58 10.7689C4.48683 11.2179 3.4928 11.8779 2.65467 12.711C1.81654 13.5442 1.15072 14.5343 0.69523 15.6248C0.239741 16.7153 0.00350159 17.8848 0 19.0666L0 28.3595C0.015664 30.1091 0.60366 31.8054 1.67415 33.1893C2.74464 34.5733 4.23877 35.5687 5.92824 36.0235L13.9394 38.1598C14.481 40.575 15.7584 42.7628 17.5955 44.4215C19.4327 46.0803 21.7391 47.1284 24.1969 47.4213C26.6547 47.7142 29.1428 47.2376 31.3184 46.0571C33.4939 44.8767 35.2497 43.0504 36.3438 40.8302H93.4632C94.4536 42.8156 95.9777 44.4857 97.8645 45.6531C99.7512 46.8204 101.926 47.4388 104.145 47.4388C106.363 47.4388 108.538 46.8204 110.425 45.6531C112.312 44.4857 113.836 42.8156 114.826 40.8302H120.167C122.006 40.8232 123.768 40.0894 125.069 38.7889C126.369 37.4883 127.103 35.7264 127.11 33.8872V24.8079C127.003 18.132 107.483 14.527 97.4688 14.527ZM74.7706 6.94309L87.3748 14.527H57.0126V2.67049H59.3358C64.7742 2.65968 70.1119 4.13724 74.7706 6.94309ZM54.3422 2.67049V14.527H34.0206L36.691 3.84546C38.8486 3.03078 41.1411 2.6321 43.4471 2.67049H54.3422ZM33.6468 5.34087L31.3235 14.3934L19.4671 11.1356L33.6468 5.34087ZM25.7959 44.8091C23.9473 44.8091 22.1403 44.2609 20.6033 43.2339C19.0663 42.2069 17.8684 40.7472 17.161 39.0394C16.4536 37.3316 16.2685 35.4524 16.6291 33.6394C16.9897 31.8263 17.8799 30.161 19.187 28.8539C20.4941 27.5468 22.1595 26.6566 23.9725 26.296C25.7855 25.9354 27.6647 26.1205 29.3725 26.8279C31.0804 27.5353 32.5401 28.7332 33.567 30.2702C34.594 31.8072 35.1422 33.6142 35.1422 35.4627C35.1422 37.9415 34.1575 40.3188 32.4047 42.0716C30.6519 43.8244 28.2747 44.8091 25.7959 44.8091ZM104.252 44.8091C102.403 44.8091 100.596 44.2609 99.059 43.2339C97.522 42.2069 96.3241 40.7472 95.6167 39.0394C94.9093 37.3316 94.7242 35.4524 95.0848 33.6394C95.4455 31.8263 96.3356 30.161 97.6427 28.8539C98.9498 27.5468 100.615 26.6566 102.428 26.296C104.241 25.9354 106.12 26.1205 107.828 26.8279C109.536 27.5353 110.996 28.7332 112.023 30.2702C113.05 31.8072 113.598 33.6142 113.598 35.4627C113.598 36.6992 113.353 37.9233 112.876 39.0643C112.4 40.2052 111.702 41.2403 110.823 42.1096C109.944 42.9789 108.901 43.6651 107.754 44.1285C106.608 44.5919 105.381 44.8232 104.145 44.8091H104.252ZM120.167 38.1331H115.948C116.148 37.2567 116.255 36.3616 116.268 35.4627C116.268 32.2757 115.002 29.2192 112.749 26.9656C110.495 24.7121 107.439 23.446 104.252 23.446C101.065 23.446 98.008 24.7121 95.7545 26.9656C93.5009 29.2192 92.2349 32.2757 92.2349 35.4627C92.2344 36.3625 92.342 37.259 92.5553 38.1331H37.3853C37.5855 37.2567 37.6929 36.3616 37.7057 35.4627C37.727 32.2757 36.4813 29.2108 34.2428 26.9422C32.0042 24.6736 28.9562 23.3872 25.7691 23.3659C22.5821 23.3447 19.5172 24.5903 17.2486 26.8289C14.98 29.0674 13.6936 32.1155 13.6723 35.3025L6.54243 33.4332C5.43682 33.1171 4.46277 32.4525 3.76514 31.5384C3.06751 30.6243 2.68356 29.5094 2.67038 28.3595V22.458H5.34076C5.69487 22.458 6.03448 22.3173 6.28488 22.0669C6.53527 21.8165 6.67595 21.4769 6.67595 21.1228C6.66911 20.7708 6.52624 20.4352 6.27731 20.1862C6.02838 19.9373 5.69273 19.7944 5.34076 19.7876H2.67038V19.0666C2.67035 18.2345 2.83511 17.4106 3.15515 16.6425C3.4752 15.8744 3.94419 15.1773 4.53506 14.5914C5.12593 14.0055 5.82699 13.5424 6.59777 13.2288C7.36855 12.9153 8.19379 12.7575 9.02588 12.7645H15.141L32.0445 17.1439H32.365H97.4688C108.15 17.1439 122.063 20.8291 124.173 23.9801H119.82C119.466 23.9801 119.126 24.1208 118.876 24.3712C118.625 24.6216 118.485 24.9612 118.485 25.3153C118.485 25.6694 118.625 26.009 118.876 26.2594C119.126 26.5098 119.466 26.6505 119.82 26.6505H124.333V33.8071C124.347 34.9312 123.918 36.0157 123.138 36.8255C122.358 37.6353 121.291 38.1051 120.167 38.1331Z" fill="#2169DE"/>
</svg>
