<svg width="35" height="36" viewBox="0 0 35 36" fill="none" xmlns="http://www.w3.org/2000/svg">
<path fill-rule="evenodd" clip-rule="evenodd" d="M5.11051 4.57191C5.39544 4.22579 5.82026 4.02527 6.26857 4.02527H33.3945C33.9139 4.02527 34.3964 4.29402 34.6698 4.73568C34.9433 5.17734 34.9687 5.72903 34.7371 6.19401L27.6596 20.4041C27.4059 20.9134 26.8859 21.2354 26.3169 21.2354H9.05C8.33267 21.2354 7.71573 20.7275 7.57794 20.0235L4.7965 5.81341C4.71038 5.37344 4.82557 4.91802 5.11051 4.57191ZM8.09064 7.02527L10.2849 18.2354H25.3883L30.9716 7.02527H8.09064Z" fill="white"/>
<path fill-rule="evenodd" clip-rule="evenodd" d="M8.8847 27.4585C7.49256 27.4585 6.36401 28.587 6.36401 29.9792C6.36401 31.3713 7.49256 32.4999 8.8847 32.4999C10.2768 32.4999 11.4054 31.3713 11.4054 29.9792C11.4054 28.5871 10.2768 27.4585 8.8847 27.4585ZM3.36401 29.9792C3.36401 26.9302 5.83571 24.4585 8.8847 24.4585C11.9337 24.4585 14.4054 26.9302 14.4054 29.9792C14.4054 33.0282 11.9337 35.4999 8.8847 35.4999C5.83571 35.4999 3.36401 33.0282 3.36401 29.9792Z" fill="white"/>
<path fill-rule="evenodd" clip-rule="evenodd" d="M26.5646 27.4585C25.1725 27.4585 24.0439 28.587 24.0439 29.9792C24.0439 31.3713 25.1725 32.4999 26.5646 32.4999C27.9568 32.4999 29.0853 31.3713 29.0853 29.9792C29.0853 28.5871 27.9568 27.4585 26.5646 27.4585ZM21.0439 29.9792C21.0439 26.9302 23.5156 24.4585 26.5646 24.4585C29.6136 24.4585 32.0853 26.9302 32.0853 29.9792C32.0853 33.0282 29.6136 35.4999 26.5646 35.4999C23.5156 35.4999 21.0439 33.0282 21.0439 29.9792Z" fill="white"/>
<path fill-rule="evenodd" clip-rule="evenodd" d="M0.5 2C0.5 1.17157 1.17157 0.5 2 0.5H5.60761C6.32583 0.5 6.94327 1.00912 7.08013 1.71419L10.5225 19.4493C10.6171 19.9369 10.4643 20.4397 10.1143 20.7921L6.47277 24.4589H26.5648C27.3932 24.4589 28.0648 25.1305 28.0648 25.9589C28.0648 26.7873 27.3932 27.4589 26.5648 27.4589H6.02069L5.99414 27.4587C5.44688 27.449 4.91425 27.2803 4.46115 26.9733C4.00805 26.6663 3.654 26.2341 3.44215 25.7294C3.23031 25.2247 3.16981 24.6693 3.26802 24.1309C3.36624 23.5924 3.61894 23.0941 3.99531 22.6968C4.00346 22.6882 4.0117 22.6797 4.02004 22.6713L7.42617 19.2415L4.37076 3.5H2C1.17157 3.5 0.5 2.82843 0.5 2Z" fill="white"/>
</svg>
