<svg width="26" height="26" viewBox="0 0 26 26" fill="none" xmlns="http://www.w3.org/2000/svg">
<path fill-rule="evenodd" clip-rule="evenodd" d="M13 11.25C13.5523 11.25 14 11.6977 14 12.25V19.16C14 19.7123 13.5523 20.16 13 20.16C12.4477 20.16 12 19.7123 12 19.16V12.25C12 11.6977 12.4477 11.25 13 11.25Z" fill="#3D7BBF"/>
<path fill-rule="evenodd" clip-rule="evenodd" d="M13 2.5C7.20101 2.5 2.5 7.20101 2.5 13C2.5 18.799 7.20101 23.5 13 23.5C18.799 23.5 23.5 18.799 23.5 13C23.5 7.20101 18.799 2.5 13 2.5ZM0.5 13C0.5 6.09644 6.09644 0.5 13 0.5C19.9036 0.5 25.5 6.09644 25.5 13C25.5 19.9036 19.9036 25.5 13 25.5C6.09644 25.5 0.5 19.9036 0.5 13Z" fill="#3D7BBF"/>
<path d="M13 8.71C13.8174 8.71 14.48 8.04738 14.48 7.23C14.48 6.41262 13.8174 5.75 13 5.75C12.1826 5.75 11.52 6.41262 11.52 7.23C11.52 8.04738 12.1826 8.71 13 8.71Z" fill="#3D7BBF"/>
</svg>
