<svg width="48" height="32" viewBox="0 0 48 32" fill="none" xmlns="http://www.w3.org/2000/svg">
<path d="M45.85 0.930054H2.15C0.962588 0.930054 0 1.89264 0 3.08005V28.9201C0 30.1075 0.962588 31.0701 2.15 31.0701H45.85C47.0374 31.0701 48 30.1075 48 28.9201V3.08005C48 1.89264 47.0374 0.930054 45.85 0.930054Z" fill="#2169DE"/>
<path d="M24.11 23.49C23.8428 23.5158 23.5947 23.6402 23.4143 23.8389C23.2338 24.0377 23.1338 24.2965 23.1338 24.565C23.1338 24.8335 23.2338 25.0923 23.4143 25.291C23.5947 25.4898 23.8428 25.6142 24.11 25.64C24.4161 25.6495 24.715 25.5463 24.95 25.35L24.76 25C24.5894 25.137 24.3787 25.2143 24.16 25.22C24.0119 25.2312 23.8653 25.1842 23.7514 25.0889C23.6375 24.9937 23.5652 24.8577 23.55 24.71H25.07C25.07 24.71 25.07 24.6 25.07 24.54C25.0767 24.4078 25.0571 24.2756 25.0124 24.1511C24.9676 24.0266 24.8986 23.9121 24.8093 23.8145C24.72 23.7168 24.6122 23.6378 24.4922 23.5821C24.3721 23.5264 24.2422 23.4951 24.11 23.49V23.49ZM23.55 24.38C23.5602 24.2429 23.6233 24.1152 23.7259 24.0238C23.8286 23.9324 23.9627 23.8844 24.1 23.89C24.2329 23.8898 24.3608 23.9404 24.4575 24.0315C24.5542 24.1227 24.6123 24.2473 24.62 24.38H23.55Z" fill="white"/>
<path d="M18.13 23.79C18.055 23.6925 17.9578 23.6144 17.8464 23.5622C17.7351 23.51 17.6129 23.4852 17.49 23.49C17.2228 23.5158 16.9747 23.6402 16.7943 23.8389C16.6138 24.0376 16.5138 24.2965 16.5138 24.5649C16.5138 24.8334 16.6138 25.0923 16.7943 25.291C16.9747 25.4897 17.2228 25.6141 17.49 25.64C17.6129 25.6447 17.7351 25.6199 17.8464 25.5677C17.9578 25.5155 18.055 25.4374 18.13 25.34V25.59H18.58V24.59V23.59H18.13V23.79ZM17.54 25.22C17.4551 25.2201 17.3711 25.2029 17.2931 25.1692C17.2152 25.1356 17.1449 25.0863 17.0868 25.0245C17.0287 24.9626 16.9839 24.8894 16.9552 24.8095C16.9265 24.7296 16.9145 24.6447 16.92 24.56C16.9278 24.4393 16.9707 24.3236 17.0434 24.2271C17.1161 24.1305 17.2154 24.0573 17.3291 24.0164C17.4429 23.9756 17.5661 23.9689 17.6836 23.9971C17.8011 24.0254 17.9078 24.0874 17.9906 24.1755C18.0733 24.2635 18.1285 24.3739 18.1494 24.493C18.1703 24.612 18.1559 24.7346 18.108 24.8455C18.0601 24.9565 17.9808 25.0511 17.8799 25.1176C17.779 25.1841 17.6609 25.2197 17.54 25.22V25.22Z" fill="white"/>
<path d="M15.26 23.49C15.1192 23.4831 14.9789 23.5126 14.8528 23.5756C14.7267 23.6387 14.6189 23.7332 14.54 23.85C14.4706 23.7358 14.3718 23.6421 14.254 23.5788C14.1362 23.5155 14.0036 23.4849 13.87 23.49C13.7525 23.4829 13.6351 23.5069 13.5298 23.5595C13.4244 23.6122 13.3348 23.6917 13.27 23.79V23.54H12.82V25.59H13.27V24.45C13.2612 24.3804 13.2677 24.3098 13.2891 24.2429C13.3105 24.1761 13.3463 24.1148 13.394 24.0633C13.4416 24.0119 13.5 23.9715 13.565 23.945C13.6299 23.9185 13.6999 23.9066 13.77 23.91C14.07 23.91 14.22 24.1 14.22 24.45V25.59H14.67V24.45C14.6612 24.3804 14.6677 24.3098 14.6891 24.2429C14.7105 24.1761 14.7463 24.1148 14.794 24.0633C14.8416 24.0119 14.9 23.9715 14.965 23.945C15.0299 23.9185 15.0999 23.9066 15.17 23.91C15.47 23.91 15.62 24.1 15.62 24.45V25.59H16.07V24.3C16.0774 24.1918 16.0615 24.0832 16.0234 23.9815C15.9853 23.8799 15.9259 23.7876 15.8492 23.7109C15.7724 23.6341 15.6801 23.5747 15.5785 23.5366C15.4769 23.4985 15.3683 23.4827 15.26 23.49V23.49Z" fill="white"/>
<path d="M26.52 23.4899C26.411 23.4852 26.3029 23.5107 26.2076 23.5636C26.1123 23.6166 26.0335 23.6949 25.98 23.7899V23.5399H25.54V25.5899H26V24.4399C26 24.0999 26.15 23.9099 26.44 23.9099C26.5353 23.912 26.6298 23.9289 26.72 23.9599L26.85 23.5499C26.751 23.5116 26.6461 23.4913 26.54 23.4899H26.52Z" fill="white"/>
<path d="M22.29 25.21C22.06 25.21 21.99 25.08 21.99 24.87V24H22.72V23.59H22V22.97H21.55V23.59H21.14V24H21.55V24.93C21.55 25.41 21.74 25.69 22.26 25.69C22.4584 25.6934 22.6534 25.6377 22.82 25.53L22.69 25.15C22.5644 25.2053 22.4263 25.226 22.29 25.21V25.21Z" fill="white"/>
<path d="M20.11 24.3599H19.9C19.71 24.3599 19.56 24.2899 19.56 24.1599C19.56 24.0299 19.7 23.9199 19.95 23.9199C20.1707 23.9246 20.3869 23.983 20.58 24.0899L20.78 23.7299C20.5254 23.5821 20.2342 23.5093 19.94 23.5199C19.42 23.5199 19.09 23.7699 19.09 24.1699C19.09 24.5699 19.34 24.7099 19.8 24.7799H20.01C20.25 24.7799 20.36 24.8799 20.36 24.9899C20.36 25.0999 20.2 25.2399 19.9 25.2399C19.6565 25.2457 19.4178 25.172 19.22 25.0299L19.01 25.3699C19.2666 25.5525 19.5752 25.6472 19.89 25.6399C20.49 25.6399 20.83 25.3599 20.83 24.9699C20.83 24.5799 20.56 24.4199 20.11 24.3599Z" fill="white"/>
<path d="M28 23.91C28.1947 23.91 28.3842 23.9731 28.54 24.09L28.75 23.73C28.5447 23.5623 28.2846 23.4768 28.02 23.49C27.8471 23.4944 27.6778 23.5402 27.5264 23.6237C27.3749 23.7071 27.2457 23.8257 27.1496 23.9694C27.0536 24.1132 26.9934 24.2779 26.9742 24.4498C26.955 24.6216 26.9774 24.7955 27.0394 24.957C27.1014 25.1184 27.2013 25.2625 27.3306 25.3773C27.4599 25.4921 27.6149 25.5742 27.7825 25.6166C27.9501 25.659 28.1255 25.6606 28.2938 25.6212C28.4622 25.5817 28.6186 25.5024 28.75 25.39L28.58 25C28.4251 25.1197 28.2357 25.1864 28.04 25.19C27.9555 25.1903 27.8718 25.173 27.7944 25.1392C27.7169 25.1055 27.6473 25.0561 27.5899 24.994C27.5326 24.932 27.4888 24.8587 27.4612 24.7788C27.4337 24.6989 27.423 24.6142 27.43 24.53C27.4245 24.3725 27.4813 24.2192 27.5879 24.1032C27.6946 23.9871 27.8426 23.9178 28 23.91V23.91Z" fill="white"/>
<path d="M36.15 25.35C36.1131 25.3124 36.0628 25.2908 36.01 25.29H35.93H35.86C35.8548 25.3131 35.8548 25.337 35.86 25.36C35.8458 25.3825 35.8382 25.4085 35.8382 25.435C35.8382 25.4616 35.8458 25.4876 35.86 25.51C35.8548 25.5331 35.8548 25.557 35.86 25.58H35.93H36.01H36.09H36.15C36.1721 25.5611 36.1892 25.5371 36.2 25.51C36.2102 25.4863 36.2154 25.4608 36.2154 25.435C36.2154 25.4093 36.2102 25.3837 36.2 25.36C36.1839 25.3543 36.1671 25.351 36.15 25.35V25.35ZM36.15 25.56H36H35.94C35.9251 25.5324 35.9173 25.5015 35.9173 25.47C35.9173 25.4386 35.9251 25.4077 35.94 25.38H36H36.12C36.1441 25.4026 36.1601 25.4324 36.1655 25.465C36.171 25.4975 36.1655 25.5309 36.15 25.56V25.56Z" fill="white"/>
<path d="M31.13 23.5399H30.69V23.7899C30.6129 23.6923 30.5139 23.6142 30.4009 23.5621C30.288 23.51 30.1643 23.4852 30.04 23.4899C29.7728 23.5157 29.5247 23.6402 29.3442 23.8389C29.1638 24.0376 29.0638 24.2965 29.0638 24.5649C29.0638 24.8334 29.1638 25.0922 29.3442 25.291C29.5247 25.4897 29.7728 25.6141 30.04 25.6399C30.1643 25.6446 30.288 25.6199 30.4009 25.5678C30.5139 25.5157 30.6129 25.4376 30.69 25.3399V25.5899H31.13V24.5899V23.5399ZM30.13 25.2199C30.0446 25.2216 29.9599 25.2054 29.8813 25.1723C29.8026 25.1392 29.7318 25.0899 29.6733 25.0277C29.6149 24.9655 29.5702 24.8917 29.542 24.8112C29.5139 24.7306 29.503 24.645 29.51 24.5599V24.5599C29.51 24.3955 29.5753 24.2378 29.6916 24.1215C29.8078 24.0053 29.9655 23.9399 30.13 23.9399C30.2944 23.9399 30.4521 24.0053 30.5684 24.1215C30.6847 24.2378 30.75 24.3955 30.75 24.5599C30.7557 24.6473 30.7429 24.7348 30.7125 24.8168C30.682 24.8988 30.6345 24.9734 30.5731 25.0358C30.5117 25.0981 30.4378 25.1468 30.3562 25.1785C30.2747 25.2102 30.1874 25.2244 30.1 25.2199H30.13Z" fill="white"/>
<path d="M34.82 23.79C34.7435 23.6917 34.6445 23.6132 34.5314 23.561C34.4183 23.5088 34.2944 23.4844 34.17 23.49C33.9028 23.5158 33.6547 23.6402 33.4743 23.8389C33.2938 24.0377 33.1938 24.2965 33.1938 24.565C33.1938 24.8334 33.2938 25.0923 33.4743 25.291C33.6547 25.4898 33.9028 25.6142 34.17 25.64C34.2944 25.6455 34.4183 25.6211 34.5314 25.5689C34.6445 25.5168 34.7435 25.4382 34.82 25.34V25.59H35.27V22.72H34.82V23.79ZM34.23 25.22C34.1447 25.2217 34.0599 25.2054 33.9813 25.1723C33.9026 25.1392 33.8318 25.0899 33.7733 25.0277C33.7149 24.9655 33.6702 24.8918 33.642 24.8112C33.6139 24.7306 33.603 24.645 33.61 24.56C33.61 24.3955 33.6753 24.2378 33.7916 24.1216C33.9079 24.0053 34.0656 23.94 34.23 23.94C34.3944 23.94 34.5521 24.0053 34.6684 24.1216C34.7847 24.2378 34.85 24.3955 34.85 24.56C34.8555 24.6447 34.8435 24.7296 34.8148 24.8095C34.7861 24.8894 34.7413 24.9626 34.6832 25.0245C34.625 25.0864 34.5548 25.1356 34.4769 25.1693C34.3989 25.2029 34.3149 25.2201 34.23 25.22V25.22Z" fill="white"/>
<path d="M32.7 23.49C32.5914 23.4875 32.4841 23.5139 32.3892 23.5666C32.2943 23.6194 32.2151 23.6965 32.16 23.79V23.54H31.72V25.59H32.17V24.44C32.17 24.1 32.31 23.91 32.6 23.91C32.6954 23.9112 32.79 23.9281 32.88 23.96L33.02 23.55C32.9173 23.5127 32.8092 23.4924 32.7 23.49Z" fill="white"/>
<path d="M19.24 21.7099C20.9678 21.7155 22.6463 21.1337 24 20.0599V20.0599C25.3537 21.1337 27.0322 21.7155 28.76 21.7099C30.8048 21.7099 32.7659 20.8976 34.2118 19.4517C35.6577 18.0058 36.47 16.0448 36.47 13.9999V13.9999C36.4579 12.5593 36.0423 11.1509 35.2705 9.93437C34.4986 8.71787 33.4014 7.74196 32.1032 7.11731C30.8049 6.49265 29.3576 6.24424 27.9254 6.40025C26.4932 6.55626 25.1333 7.11043 24 7.99994V7.99994C23.0343 7.23709 21.9 6.71648 20.692 6.48164C19.484 6.24681 18.2373 6.30456 17.0561 6.65007C15.875 6.99558 14.7937 7.61882 13.9026 8.46768C13.0116 9.31655 12.3367 10.3664 11.9344 11.5294C11.5321 12.6924 11.414 13.9349 11.59 15.1529C11.7661 16.3709 12.2311 17.529 12.9463 18.5305C13.6615 19.532 14.606 20.3478 15.7009 20.9096C16.7958 21.4715 18.0094 21.763 19.24 21.7599V21.7099Z" fill="white"/>
</svg>
