<svg width="86" height="54" viewBox="0 0 86 54" fill="none" xmlns="http://www.w3.org/2000/svg">
<path d="M14.7478 23.9988C11.831 23.9988 8.97966 24.8637 6.55439 26.4842C4.12912 28.1047 2.23885 30.408 1.12262 33.1028C0.00638819 35.7977 -0.285666 38.763 0.283383 41.6238C0.852431 44.4846 2.25703 47.1124 4.31955 49.1749C6.38208 51.2374 9.00988 52.642 11.8707 53.2111C14.7315 53.7801 17.6968 53.488 20.3916 52.3718C23.0864 51.2556 25.3897 49.3653 27.0102 46.9401C28.6307 44.5148 29.4957 41.6635 29.4957 38.7466C29.4886 34.8374 27.9325 31.0904 25.1683 28.3261C22.4041 25.5619 18.657 24.0059 14.7478 23.9988V23.9988ZM14.7478 50.813C12.3613 50.813 10.0284 50.1053 8.04411 48.7795C6.0598 47.4536 4.51321 45.5691 3.59994 43.3642C2.68666 41.1594 2.44771 38.7332 2.9133 36.3926C3.37888 34.0519 4.52809 31.9019 6.21561 30.2144C7.90313 28.5269 10.0531 27.3776 12.3938 26.912C14.7345 26.4464 17.1606 26.6854 19.3655 27.5987C21.5703 28.512 23.4548 30.0585 24.7807 32.0428C26.1066 34.0272 26.8142 36.3601 26.8142 38.7466C26.8072 41.9446 25.5336 45.0097 23.2723 47.271C21.0109 49.5324 17.9459 50.8059 14.7478 50.813V50.813Z" fill="#2169DE"/>
<path d="M71.1918 23.9989C69.0689 23.993 66.9712 24.4601 65.0514 25.3664L63.9252 22.9263C66.3808 21.7901 69.0674 21.2422 71.7718 21.326C74.4762 21.4097 77.1237 22.1229 79.5043 23.409C79.8141 23.5481 80.1653 23.5644 80.4867 23.4546C80.8081 23.3448 81.0759 23.1171 81.2359 22.8174C81.396 22.5178 81.4363 22.1686 81.3488 21.8404C81.2613 21.5122 81.0525 21.2295 80.7645 21.0493C78.0195 19.5664 74.9667 18.7435 71.8483 18.6458C68.7298 18.548 65.6315 19.1782 62.799 20.4862L60.7075 15.9546C62.0489 16.438 63.4646 16.683 64.8905 16.6786C65.2461 16.6786 65.5871 16.5373 65.8385 16.2859C66.09 16.0345 66.2312 15.6935 66.2312 15.3379V3.7541C66.2312 3.39852 66.09 3.05751 65.8385 2.80607C65.5871 2.55464 65.2461 2.41339 64.8905 2.41339C63.214 2.30462 61.5368 2.61542 60.0105 3.31768C58.4843 4.01994 57.1571 5.09151 56.1491 6.43553L53.4676 0.777719C53.359 0.54291 53.1847 0.344562 52.9659 0.206583C52.747 0.0686037 52.4929 -0.00311481 52.2342 0.000103766H43.6C43.2444 0.000103766 42.9034 0.141356 42.652 0.392788C42.4005 0.644221 42.2593 0.985237 42.2593 1.34082C42.2593 1.6964 42.4005 2.03741 42.652 2.28884C42.9034 2.54028 43.2444 2.68153 43.6 2.68153H51.6443L53.709 7.1327H42.1252C40.3291 7.13314 38.5734 7.66567 37.0796 8.66308C35.5859 9.66049 34.4211 11.0781 33.7323 12.7369C33.5007 12.7114 33.2669 12.7114 33.0352 12.7369H9.86767C8.44535 12.7369 7.08129 13.3019 6.07556 14.3076C5.06983 15.3133 4.50482 16.6774 4.50482 18.0997C4.51451 18.6673 4.70407 19.2171 5.04619 19.6701C5.38831 20.123 5.86535 20.4557 6.40863 20.6202C4.8453 21.3121 3.38383 22.2142 2.06473 23.3017C1.90838 23.4051 1.77546 23.5402 1.67457 23.6983C1.57367 23.8563 1.50703 24.0337 1.47897 24.2191C1.45091 24.4044 1.46204 24.5937 1.51164 24.7745C1.56124 24.9553 1.64821 25.1236 1.76693 25.2688C1.88565 25.4139 2.03348 25.5325 2.20088 25.6169C2.36828 25.7013 2.55153 25.7497 2.73879 25.7589C2.92605 25.7681 3.11317 25.7379 3.28804 25.6703C3.46291 25.6027 3.62165 25.4991 3.75402 25.3664C6.15297 23.4061 9.03174 22.1217 12.093 21.6459C15.1543 21.1701 18.2871 21.5201 21.1678 22.6599C24.0486 23.7996 26.5729 25.6877 28.48 28.1292C30.3871 30.5706 31.6079 33.4769 32.0162 36.5479C32.127 37.2755 32.1808 38.0107 32.1771 38.7467C32.1879 40.1748 32.0167 41.5985 31.6677 42.9834C31.6278 43.1689 31.6278 43.3608 31.6677 43.5464V43.7073C31.6934 43.8345 31.7484 43.9539 31.8285 44.0559V44.0559C31.9055 44.1417 31.9961 44.2142 32.0967 44.2704H32.3112H52.69C53.0456 44.2704 53.3866 44.1292 53.638 43.8777C53.8895 43.6263 54.0307 43.2853 54.0307 42.9297C54.0439 42.8229 54.0439 42.7148 54.0307 42.608C53.6729 41.2334 53.4926 39.8185 53.4945 38.3981C53.4881 37.6432 53.5509 36.8892 53.6822 36.1457C54.0634 33.7179 54.9592 31.3996 56.3096 29.3463C57.66 27.2929 59.4337 25.552 61.5119 24.2402L62.6381 26.7071C59.7637 28.7295 57.7076 31.7136 56.8418 35.1199C55.9759 38.5262 56.3573 42.1299 57.917 45.2795C59.4767 48.4291 62.1118 50.9167 65.3459 52.2927C68.58 53.6686 72.1996 53.8421 75.5505 52.7817C78.9013 51.7213 81.7622 49.4971 83.616 46.511C85.4697 43.525 86.1939 39.9743 85.6577 36.5008C85.1215 33.0273 83.3603 29.8603 80.6924 27.5723C78.0245 25.2843 74.626 24.0262 71.1114 24.0257L71.1918 23.9989ZM57.9724 9.49235C57.9724 7.37402 60.4125 5.52384 63.5498 5.09481V13.9167C62.5666 13.8399 61.6096 13.5624 60.738 13.1012C59.8663 12.64 59.0985 12.0049 58.4819 11.2353L58.0797 10.2968C57.9967 10.0371 57.9603 9.76472 57.9724 9.49235V9.49235ZM42.1252 9.73369H54.5938L58.5355 17.9657H37.54C37.2995 17.9693 37.0608 17.9246 36.8379 17.8342C36.6151 17.7439 36.4126 17.6097 36.2426 17.4397C36.0726 17.2696 35.9384 17.0672 35.848 16.8443C35.7577 16.6214 35.713 16.3827 35.7166 16.1423C35.7166 14.4426 36.3918 12.8126 37.5936 11.6107C38.7955 10.4089 40.4255 9.73369 42.1252 9.73369V9.73369ZM9.86767 15.2842H33.0352V16.2227V18.0461H7.07898C7.05614 17.6715 7.11219 17.2962 7.24353 16.9446C7.37486 16.593 7.57856 16.2729 7.84142 16.005C8.10428 15.737 8.42046 15.5273 8.7695 15.3893C9.11854 15.2513 9.49266 15.1881 9.86767 15.2038V15.2842ZM34.5904 42.0985C34.5757 42.0007 34.5757 41.9013 34.5904 41.8035C34.7295 40.8354 34.8011 39.8588 34.8049 38.8808C34.8049 38.5054 34.8049 38.1568 34.8049 37.8082H51.1348C51.1348 38.1568 51.1348 38.5054 51.1348 38.8808C51.1463 39.8506 51.227 40.8183 51.3761 41.7767C51.3761 41.7767 51.3761 41.9912 51.3761 42.0985H34.5904ZM52.985 30.4343H38.9075C38.8008 30.438 38.6946 30.4198 38.5953 30.3807C38.496 30.3416 38.4058 30.2824 38.3303 30.207C38.2549 30.1315 38.1958 30.0414 38.1567 29.9421C38.1176 29.8428 38.0993 29.7365 38.1031 29.6298V27.6188C38.0993 27.5121 38.1176 27.4059 38.1567 27.3066C38.1958 27.2073 38.2549 27.1171 38.3303 27.0416C38.4058 26.9662 38.496 26.9071 38.5953 26.868C38.6946 26.8289 38.8008 26.8106 38.9075 26.8144H55.1569C54.3095 27.8947 53.5813 29.0634 52.985 30.3002V30.4343ZM57.5702 24.1329H38.8002C37.8757 24.1329 36.9891 24.5002 36.3354 25.1539C35.6817 25.8076 35.3144 26.6943 35.3144 27.6188V29.6298C35.3144 30.5543 35.6817 31.441 36.3354 32.0947C36.9891 32.7485 37.8757 33.1157 38.8002 33.1157H51.8588C51.68 33.795 51.5191 34.4653 51.3761 35.1268H34.4295C33.8531 32.0473 32.5633 29.1457 30.6634 26.6545C28.7636 24.1633 26.3066 22.1518 23.4893 20.7812H33.0352C33.3945 20.7833 33.7505 20.7131 34.0822 20.5749C34.4138 20.4367 34.7143 20.2333 34.9658 19.9767C35.7498 20.5263 36.6902 20.8084 37.6472 20.7812H60.0371L60.5466 21.9074C59.496 22.5173 58.5001 23.2171 57.5702 23.9989V24.1329ZM71.1918 50.9472C68.6705 50.9604 66.209 50.18 64.1559 48.7164C62.1027 47.2529 60.5622 45.1804 59.7524 42.7927C58.9426 40.4049 58.9047 37.8228 59.644 35.4123C60.3833 33.0017 61.8623 30.8849 63.8716 29.3617L66.8748 35.4754C66.9886 35.7062 67.164 35.901 67.3817 36.0382C67.5994 36.1755 67.8509 36.2498 68.1082 36.253C68.2948 36.2494 68.4782 36.2036 68.6445 36.1189C68.8069 36.0494 68.9536 35.9477 69.0758 35.8202C69.1981 35.6926 69.2933 35.5418 69.3559 35.3766C69.4185 35.2113 69.4471 35.0352 69.44 34.8587C69.433 34.6822 69.3904 34.5089 69.3149 34.3492L66.1776 27.8869C67.8125 27.1464 69.5923 26.7808 71.3867 26.8169C73.1811 26.8529 74.9448 27.2897 76.5487 28.0953C78.1525 28.9008 79.556 30.0548 80.6563 31.4727C81.7567 32.8906 82.5262 34.5366 82.9084 36.2902C83.2906 38.0439 83.2758 39.8607 82.8653 41.6079C82.4548 43.3552 81.6588 44.9885 80.5356 46.3884C79.4124 47.7883 77.9905 48.9194 76.3738 49.6989C74.7571 50.4784 72.9866 50.8866 71.1918 50.8936V50.9472Z" fill="#2169DE"/>
</svg>
