<svg width="26" height="26" viewBox="0 0 26 26" fill="none" xmlns="http://www.w3.org/2000/svg">
<path fill-rule="evenodd" clip-rule="evenodd" d="M13 2C6.92487 2 2 6.92487 2 13C2 19.0751 6.92487 24 13 24C19.0751 24 24 19.0751 24 13C24 6.92487 19.0751 2 13 2ZM0 13C0 5.8203 5.8203 0 13 0C20.1797 0 26 5.8203 26 13C26 20.1797 20.1797 26 13 26C5.8203 26 0 20.1797 0 13Z" fill="#2169DE"/>
<path fill-rule="evenodd" clip-rule="evenodd" d="M10.3875 4.89933C9.54481 6.92188 9 9.78532 9 13C9 16.2147 9.54481 19.0781 10.3875 21.1007C10.8098 22.1141 11.2872 22.869 11.7662 23.3552C12.2417 23.8379 12.658 24 13 24C13.342 24 13.7583 23.8379 14.2338 23.3552C14.7128 22.869 15.1902 22.1141 15.6125 21.1007C16.4552 19.0781 17 16.2147 17 13C17 9.78532 16.4552 6.92188 15.6125 4.89933C15.1902 3.88587 14.7128 3.13101 14.2338 2.6448C13.7583 2.16211 13.342 2 13 2C12.658 2 12.2417 2.16211 11.7662 2.6448C11.2872 3.13101 10.8098 3.88587 10.3875 4.89933ZM10.3414 1.24124C11.0623 0.509459 11.9613 0 13 0C14.0387 0 14.9377 0.509459 15.6586 1.24124C16.376 1.96949 16.9761 2.97199 17.4586 4.1301C18.4255 6.4507 19 9.58726 19 13C19 16.4127 18.4255 19.5493 17.4586 21.8699C16.9761 23.028 16.376 24.0305 15.6586 24.7588C14.9377 25.4905 14.0387 26 13 26C11.9613 26 11.0623 25.4905 10.3414 24.7588C9.62397 24.0305 9.02394 23.028 8.54139 21.8699C7.57447 19.5493 7 16.4127 7 13C7 9.58726 7.57447 6.4507 8.54139 4.1301C9.02394 2.97199 9.62397 1.96949 10.3414 1.24124Z" fill="#2169DE"/>
<path fill-rule="evenodd" clip-rule="evenodd" d="M25 14H1V12H25V14Z" fill="#2169DE"/>
</svg>
