<svg width="14" height="13" viewBox="0 0 14 13" fill="none" xmlns="http://www.w3.org/2000/svg">
<path d="M6.04904 0.927067C6.34839 0.00575668 7.6518 0.00575596 7.95115 0.927067L8.79621 3.52788C8.93008 3.9399 9.31404 4.21886 9.74727 4.21886H12.4819C13.4506 4.21886 13.8534 5.45848 13.0697 6.02788L10.8573 7.63527C10.5068 7.88991 10.3602 8.34128 10.4941 8.7533L11.3391 11.3541C11.6385 12.2754 10.584 13.0416 9.80027 12.4722L7.58788 10.8648C7.2374 10.6101 6.7628 10.6101 6.41231 10.8648L4.19993 12.4722C3.41622 13.0416 2.36174 12.2754 2.66109 11.3541L3.50614 8.7533C3.64002 8.34128 3.49336 7.88991 3.14287 7.63527L0.930489 6.02788C0.146776 5.45848 0.54955 4.21886 1.51827 4.21886H4.25293C4.68616 4.21886 5.07011 3.9399 5.20399 3.52788L6.04904 0.927067Z" fill="white"/>
</svg>
