<svg width="48" height="32" viewBox="0 0 48 32" fill="none" xmlns="http://www.w3.org/2000/svg">
<path d="M45.85 0.930054H2.15C0.962588 0.930054 0 1.89264 0 3.08005V28.9201C0 30.1075 0.962588 31.0701 2.15 31.0701H45.85C47.0374 31.0701 48 30.1075 48 28.9201V3.08005C48 1.89264 47.0374 0.930054 45.85 0.930054Z" fill="#2169DE"/>
<path d="M20.56 22.39H17.23L19.31 9.61002H22.64L20.56 22.39ZM14.43 9.61002L11.26 18.4L10.89 16.51L9.77001 10.76C9.7017 10.4036 9.50047 10.0866 9.20709 9.87302C8.91371 9.65948 8.55012 9.56547 8.19 9.61002H2.94L2.88 9.83002C4.10851 10.1339 5.28246 10.6264 6.36 11.29L9.25 22.39H12.72L18 9.61002H14.43ZM40.61 22.39H43.61L41 9.61002H38.32C37.9913 9.58985 37.6649 9.67627 37.3893 9.85643C37.1136 10.0366 36.9035 10.3009 36.79 10.61L31.79 22.43H35.25L36 20.5H40.23L40.62 22.39H40.61ZM37 17.87L38.74 13.09L39.74 17.87H37ZM32.14 12.69L32.61 9.94002C31.645 9.60044 30.6327 9.41483 29.61 9.39001C27.96 9.39001 24.03 10.11 24.03 13.62C24.03 16.92 28.64 16.96 28.64 18.69C28.64 20.42 24.51 20.12 23.15 19.02L22.65 21.89C23.8405 22.3859 25.1205 22.6311 26.41 22.61C28.68 22.61 32.1 21.44 32.1 18.24C32.1 15.04 27.46 14.61 27.46 13.16C27.46 11.71 30.7 11.9 32.13 12.69H32.14Z" fill="white"/>
</svg>
