<svg width="62" height="62" viewBox="0 0 62 62" fill="none" xmlns="http://www.w3.org/2000/svg">
<path d="M28.0254 32.6627V53.0475H16.7322L20.5305 32.6627H28.0254Z" stroke="#2169DE" stroke-width="2" stroke-linecap="round" stroke-linejoin="round"/>
<path d="M28.0254 9.28305V25.4271H21.8779L24.8881 9.28305H28.0254Z" stroke="#2169DE" stroke-width="2" stroke-linecap="round" stroke-linejoin="round"/>
<path d="M40.1323 25.4271H33.9797V9.28305H37.1221L40.1323 25.4271Z" stroke="#2169DE" stroke-width="2" stroke-linecap="round" stroke-linejoin="round"/>
<path d="M45.273 53.0475H33.9797V32.6627H41.4797L45.273 53.0475Z" stroke="#2169DE" stroke-width="2" stroke-linecap="round" stroke-linejoin="round"/>
<path d="M54.1508 25.4271V32.6627H50.8458V39.0491H46.183V32.6627H15.817V39.0491H11.1593V32.6627H7.85425V25.4271H54.1508Z" stroke="#2169DE" stroke-width="2" stroke-linecap="round" stroke-linejoin="round"/>
<path d="M61 8.36271V53.6169C61.0026 54.5855 60.8142 55.5451 60.4454 56.4408C60.0766 57.3364 59.5346 58.1505 58.8507 58.8363C58.1667 59.5221 57.3542 60.0663 56.4596 60.4376C55.5649 60.8089 54.6059 61 53.6373 61H8.38305C7.41464 61.002 6.45534 60.8131 5.56 60.444C4.66467 60.075 3.85088 59.533 3.16517 58.8492C2.47945 58.1654 1.93528 57.3531 1.56376 56.4588C1.19224 55.5645 1.00067 54.6057 1 53.6373V13.6508L13.6508 1H53.6373C54.6041 1 55.5616 1.19044 56.4549 1.56045C57.3481 1.93046 58.1598 2.4728 58.8435 3.15649C59.5272 3.84018 60.0695 4.65184 60.4395 5.54512C60.8095 6.43841 61 7.39582 61 8.36271Z" stroke="#2169DE" stroke-width="2" stroke-linecap="round" stroke-linejoin="round"/>
<path d="M1 13.6508L13.6508 1V6.28813C13.6495 8.24131 12.8727 10.114 11.4911 11.4947C10.1095 12.8753 8.23623 13.6508 6.28305 13.6508H1Z" stroke="#2169DE" stroke-width="2" stroke-linecap="round" stroke-linejoin="round"/>
</svg>
