<svg width="98" height="68" viewBox="0 0 98 68" fill="none" xmlns="http://www.w3.org/2000/svg">
<path d="M91.1594 56.8229C91.1594 59.3313 90.1629 61.7371 88.3892 63.5108C86.6154 65.2845 84.2097 66.281 81.7013 66.281C79.1928 66.281 76.7871 65.2845 75.0134 63.5108C73.2396 61.7371 72.2432 59.3313 72.2432 56.8229V56.681C72.3871 54.233 73.4339 51.9253 75.181 50.2044C76.9281 48.4835 79.2513 47.4717 81.7013 47.3648C84.2097 47.3648 86.6154 48.3612 88.3892 50.135C90.1629 51.9087 91.1594 54.3144 91.1594 56.8229Z" stroke="white" stroke-width="2" stroke-linecap="round" stroke-linejoin="round"/>
<path d="M21.6661 66.281C26.8897 66.281 31.1243 62.0465 31.1243 56.8229C31.1243 51.5993 26.8897 47.3648 21.6661 47.3648C16.4426 47.3648 12.208 51.5993 12.208 56.8229C12.208 62.0465 16.4426 66.281 21.6661 66.281Z" stroke="white" stroke-width="2" stroke-linecap="round" stroke-linejoin="round"/>
<path d="M91.1596 56.8228H97V48.3342C97.0051 46.4113 96.4239 44.5325 95.334 42.9483C94.2441 41.3641 92.6972 40.1498 90.8995 39.4672L80.6611 35.5184L24.7636 33.1539L21.9971 28.4248" stroke="white" stroke-width="2" stroke-linecap="round" stroke-linejoin="round"/>
<path d="M72.2442 56.8229C59.594 56.8229 43.8698 56.8229 31.125 56.8229" stroke="white" stroke-width="2" stroke-linecap="round" stroke-linejoin="round"/>
<path d="M37.2719 19.1795L28.7832 20.0307" stroke="white" stroke-width="2" stroke-linecap="round" stroke-linejoin="round"/>
<path d="M11.3327 29.6308L6.03613 36.7007V38.0012V44.0544V50.415L11.4982 55.8061" stroke="white" stroke-width="2" stroke-linecap="round" stroke-linejoin="round"/>
<path d="M37.1768 19.1796C44.5419 18.8533 51.9033 19.9038 58.8832 22.2771C66.967 25.1054 74.3577 29.6188 80.5659 35.5185" stroke="white" stroke-width="2" stroke-linecap="round" stroke-linejoin="round"/>
<path d="M41.8115 19.1795L51.1514 56.8229" stroke="white" stroke-width="2" stroke-linecap="round" stroke-linejoin="round"/>
<path d="M96.9993 50.5569H88.7471" stroke="white" stroke-width="2" stroke-linecap="round" stroke-linejoin="round"/>
<path d="M67.7742 50.5569H38.9033" stroke="white" stroke-width="2" stroke-linecap="round" stroke-linejoin="round"/>
<path d="M6.03613 38.0248H15.1869L13.6263 44.0543H6.03613" stroke="white" stroke-width="2" stroke-linecap="round" stroke-linejoin="round"/>
<path d="M60.3264 39.5618H54.084" stroke="white" stroke-width="2" stroke-linecap="round" stroke-linejoin="round"/>
<path d="M33.7258 39.5618H27.4834" stroke="white" stroke-width="2" stroke-linecap="round" stroke-linejoin="round"/>
<path d="M29.3744 15.9874C29.3744 19.7501 27.8797 23.3587 25.219 26.0193C22.5584 28.6799 18.9499 30.1746 15.1872 30.1746C13.8798 30.1532 12.5821 29.9462 11.333 29.5598C8.79191 28.8425 6.50142 27.4303 4.71923 25.4821C2.93705 23.5339 1.7339 21.127 1.24517 18.5323C0.756427 15.9375 1.00149 13.2578 1.95279 10.7948C2.90408 8.3317 4.52386 6.18297 6.62986 4.59036C8.73586 2.99775 11.2445 2.02444 13.8736 1.77996C16.5026 1.53548 19.1477 2.02953 21.5113 3.20651C23.8748 4.38349 25.863 6.19671 27.2522 8.44214C28.6413 10.6876 29.3763 13.2761 29.3744 15.9165V15.9874Z" stroke="white" stroke-width="2" stroke-linecap="round" stroke-linejoin="round"/>
<path d="M21.2404 14.3322H15.5892L17.2444 6.19826L8.80298 16.6258C8.72552 16.7155 8.6756 16.8255 8.65923 16.9429C8.64285 17.0602 8.66071 17.1797 8.71067 17.2871C8.76062 17.3945 8.84054 17.4852 8.94082 17.5483C9.04109 17.6113 9.15744 17.6441 9.27589 17.6426H14.9508L13.2247 25.7766L21.737 15.3726C21.8129 15.2789 21.8608 15.1656 21.875 15.0458C21.8892 14.9259 21.8691 14.8046 21.8171 14.6957C21.7652 14.5868 21.6834 14.4949 21.5814 14.4305C21.4793 14.3662 21.3611 14.3321 21.2404 14.3322V14.3322Z" stroke="white" stroke-width="2" stroke-linecap="round" stroke-linejoin="round"/>
<path d="M15.2341 30.1746C23.0694 30.1746 29.4212 23.8228 29.4212 15.9874C29.4212 8.15207 23.0694 1.80025 15.2341 1.80025C7.39869 1.80025 1.04688 8.15207 1.04688 15.9874C1.04688 23.8228 7.39869 30.1746 15.2341 30.1746Z" stroke="white" stroke-width="2" stroke-linecap="round" stroke-linejoin="round"/>
</svg>
