<svg width="98" height="68" viewBox="0 0 98 68" fill="none" xmlns="http://www.w3.org/2000/svg">
<path d="M91.1594 56.8229C91.1594 59.3313 90.1629 61.737 88.3892 63.5108C86.6154 65.2845 84.2097 66.281 81.7013 66.281C79.1928 66.281 76.7871 65.2845 75.0134 63.5108C73.2396 61.737 72.2432 59.3313 72.2432 56.8229V56.681C72.3871 54.2329 73.4339 51.9253 75.181 50.2044C76.9281 48.4835 79.2513 47.4717 81.7013 47.3647C84.2097 47.3647 86.6154 48.3612 88.3892 50.135C90.1629 51.9087 91.1594 54.3144 91.1594 56.8229Z" stroke="white" stroke-width="2" stroke-linecap="round" stroke-linejoin="round"/>
<path d="M21.6666 66.281C26.8902 66.281 31.1247 62.0464 31.1247 56.8229C31.1247 51.5993 26.8902 47.3647 21.6666 47.3647C16.443 47.3647 12.2085 51.5993 12.2085 56.8229C12.2085 62.0464 16.443 66.281 21.6666 66.281Z" stroke="white" stroke-width="2" stroke-linecap="round" stroke-linejoin="round"/>
<path d="M91.1591 56.8228H96.9995V48.3342C97.0046 46.4113 96.4234 44.5325 95.3335 42.9483C94.2436 41.3641 92.6967 40.1498 90.899 39.4672L80.6606 35.5184L24.7631 33.1539L21.9966 28.4248" stroke="white" stroke-width="2" stroke-linecap="round" stroke-linejoin="round"/>
<path d="M72.2437 56.8229C59.5935 56.8229 43.8693 56.8229 31.1245 56.8229" stroke="white" stroke-width="2" stroke-linecap="round" stroke-linejoin="round"/>
<path d="M37.2719 19.1795L28.7832 20.0307" stroke="white" stroke-width="2" stroke-linecap="round" stroke-linejoin="round"/>
<path d="M11.3327 29.6308L6.03613 36.7007V38.0012V44.0544V50.415L11.4982 55.8061" stroke="white" stroke-width="2" stroke-linecap="round" stroke-linejoin="round"/>
<path d="M37.1768 19.1796C44.5419 18.8533 51.9033 19.9038 58.8832 22.2771C66.967 25.1054 74.3577 29.6188 80.5659 35.5185" stroke="white" stroke-width="2" stroke-linecap="round" stroke-linejoin="round"/>
<path d="M41.811 19.1795L51.1509 56.8228" stroke="white" stroke-width="2" stroke-linecap="round" stroke-linejoin="round"/>
<path d="M96.9998 50.5569H88.7476" stroke="white" stroke-width="2" stroke-linecap="round" stroke-linejoin="round"/>
<path d="M67.7738 50.5569H38.9028" stroke="white" stroke-width="2" stroke-linecap="round" stroke-linejoin="round"/>
<path d="M6.03613 38.0248H15.1869L13.6263 44.0544H6.03613" stroke="white" stroke-width="2" stroke-linecap="round" stroke-linejoin="round"/>
<path d="M60.3264 39.5618H54.084" stroke="white" stroke-width="2" stroke-linecap="round" stroke-linejoin="round"/>
<path d="M33.7258 39.5618H27.4834" stroke="white" stroke-width="2" stroke-linecap="round" stroke-linejoin="round"/>
<path d="M29.3744 15.9874C29.3744 19.7501 27.8797 23.3586 25.219 26.0193C22.5584 28.6799 18.9499 30.1746 15.1872 30.1746C13.8798 30.1532 12.5821 29.9462 11.333 29.5598C8.79191 28.8425 6.50142 27.4303 4.71923 25.4821C2.93705 23.5339 1.7339 21.127 1.24517 18.5322C0.756427 15.9375 1.00149 13.2578 1.95279 10.7947C2.90408 8.33168 4.52386 6.18296 6.62986 4.59034C8.73586 2.99773 11.2445 2.02443 13.8736 1.77995C16.5026 1.53547 19.1477 2.02951 21.5113 3.2065C23.8748 4.38348 25.863 6.19669 27.2522 8.44212C28.6413 10.6875 29.3763 13.2761 29.3744 15.9165V15.9874Z" stroke="white" stroke-width="2" stroke-linecap="round" stroke-linejoin="round"/>
<path d="M21.5286 9.66246C21.5286 9.66246 13.6535 7.94033 8.82153 12.7723C5.3271 16.2668 8.83825 22.3528 8.83825 22.3528C8.83825 22.3528 14.9075 25.8472 18.402 22.3528C23.234 17.5208 21.5286 9.66246 21.5286 9.66246Z" stroke="white" stroke-width="2" stroke-linecap="round" stroke-linejoin="round"/>
<path d="M17.9673 13.2237L8.8383 22.3527" stroke="white" stroke-width="2" stroke-linecap="round" stroke-linejoin="round"/>
<path d="M16.58 19.0259L12.1493 19.0426L12.166 14.6119" stroke="white" stroke-width="2" stroke-linecap="round" stroke-linejoin="round"/>
<path d="M15.1872 30.1746C23.0226 30.1746 29.3744 23.8228 29.3744 15.9874C29.3744 8.15207 23.0226 1.80025 15.1872 1.80025C7.35182 1.80025 1 8.15207 1 15.9874C1 23.8228 7.35182 30.1746 15.1872 30.1746Z" stroke="white" stroke-width="2" stroke-linecap="round" stroke-linejoin="round"/>
</svg>
