<svg width="58" height="58" viewBox="0 0 58 58" fill="none" xmlns="http://www.w3.org/2000/svg">
<path d="M54.3077 20.3846H40.3077C39.5936 20.3846 38.9088 20.101 38.4039 19.5961C37.899 19.0911 37.6154 18.4064 37.6154 17.6923V3.69231C37.6154 2.97826 37.3317 2.29346 36.8268 1.78856C36.3219 1.28365 35.6371 1 34.9231 1H23.0769C22.3629 1 21.6781 1.28365 21.1732 1.78856C20.6683 2.29346 20.3846 2.97826 20.3846 3.69231V17.6923C20.3846 18.4064 20.101 19.0911 19.5961 19.5961C19.0912 20.101 18.4064 20.3846 17.6923 20.3846H3.69231C2.97826 20.3846 2.29346 20.6683 1.78856 21.1732C1.28365 21.6781 1 22.3629 1 23.0769V34.9231C1 35.6371 1.28365 36.3219 1.78856 36.8268C2.29346 37.3317 2.97826 37.6154 3.69231 37.6154H17.6923C18.4064 37.6154 19.0912 37.899 19.5961 38.4039C20.101 38.9088 20.3846 39.5936 20.3846 40.3077V54.3077C20.3846 55.0217 20.6683 55.7065 21.1732 56.2114C21.6781 56.7164 22.3629 57 23.0769 57H34.9231C35.6371 57 36.3219 56.7164 36.8268 56.2114C37.3317 55.7065 37.6154 55.0217 37.6154 54.3077V40.3077C37.6154 39.5936 37.899 38.9088 38.4039 38.4039C38.9088 37.899 39.5936 37.6154 40.3077 37.6154H54.3077C55.0217 37.6154 55.7065 37.3317 56.2114 36.8268C56.7164 36.3219 57 35.6371 57 34.9231V23.0769C57 22.3629 56.7164 21.6781 56.2114 21.1732C55.7065 20.6683 55.0217 20.3846 54.3077 20.3846V20.3846Z" stroke="white" stroke-width="2" stroke-linecap="round" stroke-linejoin="round"/>
</svg>
