<svg width="98" height="58" viewBox="0 0 98 58" fill="none" xmlns="http://www.w3.org/2000/svg">
<path d="M5.38722 46.1478C5.43499 45.6931 5.5218 45.2432 5.64668 44.8034C5.44797 44.3329 5.34378 43.828 5.34005 43.3174V33.6938C3.62393 34.8913 2.1511 36.4042 1 38.1518" stroke="white" stroke-width="2" stroke-linecap="round" stroke-linejoin="round"/>
<path d="M31.2856 47.233H24.2095" stroke="white" stroke-width="2" stroke-linecap="round" stroke-linejoin="round"/>
<path d="M5.43474 44.1901C5.41893 43.9309 5.41893 43.6709 5.43474 43.4117V33.6938C3.83507 34.8088 2.44555 36.1983 1.33057 37.7979" stroke="white" stroke-width="2" stroke-linecap="round" stroke-linejoin="round"/>
<path d="M5.64637 44.8977C5.55094 44.67 5.47979 44.4328 5.43408 44.1901" stroke="white" stroke-width="2" stroke-linecap="round" stroke-linejoin="round"/>
<path d="M38.8103 47.233H25.625" stroke="white" stroke-width="2" stroke-linecap="round" stroke-linejoin="round"/>
<path d="M97.0002 33.9534C95.0822 32.5438 92.882 31.5656 90.5506 31.0858C88.2192 30.6061 85.8116 30.636 83.4929 31.1737C81.1742 31.7114 78.9991 32.7441 77.1167 34.2009C75.2344 35.6578 73.6893 37.5045 72.5874 39.6143M87.2351 56.6679C85.369 56.6679 83.5449 56.1145 81.9933 55.0778C80.4418 54.0411 79.2325 52.5675 78.5184 50.8435C77.8043 49.1195 77.6174 47.2225 77.9815 45.3923C78.3455 43.5621 79.2441 41.881 80.5636 40.5615C81.8831 39.242 83.5642 38.3434 85.3944 37.9794C87.2246 37.6153 89.1216 37.8022 90.8456 38.5163C92.5696 39.2304 94.0432 40.4397 95.0799 41.9912C96.1166 43.5428 96.67 45.3669 96.67 47.233C96.67 48.474 96.4251 49.7028 95.9495 50.849C95.4739 51.9952 94.7768 53.0364 93.8982 53.9128C93.0196 54.7892 91.9767 55.4837 90.8293 55.9565C89.6819 56.4292 88.4525 56.671 87.2115 56.6679H87.2351Z" stroke="white" stroke-width="2" stroke-linecap="round" stroke-linejoin="round"/>
<path d="M24.2102 47.233C24.2102 49.7353 23.2162 52.1351 21.4468 53.9044C19.6774 55.6738 17.2776 56.6679 14.7753 56.6679C12.2731 56.6679 9.87326 55.6738 8.10387 53.9044C6.33449 52.1351 5.34046 49.7353 5.34046 47.233C5.33087 46.4362 5.4341 45.6421 5.64709 44.8742C6.22655 42.657 7.59319 40.7265 9.49182 39.4432C11.3905 38.1598 13.6913 37.6114 15.9647 37.9003C18.2381 38.1891 20.3286 39.2956 21.8459 41.013C23.3633 42.7304 24.2037 44.9413 24.2102 47.233Z" stroke="white" stroke-width="2" stroke-linecap="round" stroke-linejoin="round"/>
<path d="M87.2108 56.6678C92.4215 56.6678 96.6457 52.4437 96.6457 47.233C96.6457 42.0222 92.4215 37.7981 87.2108 37.7981C82 37.7981 77.7759 42.0222 77.7759 47.233C77.7759 52.4437 82 56.6678 87.2108 56.6678Z" stroke="white" stroke-width="2" stroke-linecap="round" stroke-linejoin="round"/>
<path d="M87.2112 30.7219V37.7981C84.709 37.7981 82.3092 38.7921 80.5398 40.5615C78.7704 42.3309 77.7764 44.7307 77.7764 47.233H61.5483" stroke="white" stroke-width="2" stroke-linecap="round" stroke-linejoin="round"/>
<path d="M55.0386 7.46485H12.1806C11.4987 7.46485 10.8448 7.73572 10.3626 8.21788C9.88045 8.70004 9.60957 9.35398 9.60957 10.0359V22.5607H3.19385V4.94102C3.19383 3.98796 3.5708 3.0736 4.2425 2.39748C4.9142 1.72136 5.82607 1.3384 6.77911 1.33217H47.7973C49.5351 1.331 51.2169 1.94683 52.5431 3.06995C53.8692 4.19308 54.7536 5.75054 55.0386 7.46485V7.46485Z" stroke="white" stroke-width="2" stroke-linecap="round" stroke-linejoin="round"/>
<path d="M57.6089 22.5606H9.60889V10.0358C9.60889 9.35392 9.87976 8.69997 10.3619 8.21781C10.8441 7.73566 11.498 7.46478 12.1799 7.46478H55.0379L57.6089 22.5606Z" stroke="white" stroke-width="2" stroke-linecap="round" stroke-linejoin="round"/>
<path d="M87.2115 26.3818V30.7218C78.1541 31.3115 74.0499 36.2413 72.2101 40.5577C71.2966 42.5735 69.8146 44.2789 67.9459 45.4646C66.0772 46.6504 63.9031 47.2649 61.6902 47.2329H37.2066C35.7369 47.2587 34.2973 46.8152 33.0969 45.9668C31.8964 45.1185 30.9978 43.9095 30.5314 42.5155C29.5926 39.4282 27.7696 36.6838 25.288 34.6213C22.8063 32.5589 19.7747 31.2688 16.5678 30.9105V30.9105C15.987 30.8629 15.4032 30.8629 14.8224 30.9105C14.2415 30.8629 13.6577 30.8629 13.0769 30.9105V30.9105C10.3456 31.2085 7.73341 32.1901 5.48181 33.7646V30.8398L3.19385 22.5607H83.3904C83.8922 22.5607 84.3891 22.6595 84.8527 22.8515C85.3163 23.0436 85.7375 23.325 86.0924 23.6799C86.4472 24.0347 86.7286 24.4559 86.9207 24.9195C87.1127 25.3831 87.2115 25.88 87.2115 26.3818V26.3818Z" stroke="white" stroke-width="2" stroke-linecap="round" stroke-linejoin="round"/>
<path d="M47.4673 17.3951L53.081 22.5607" stroke="white" stroke-width="2" stroke-linecap="round" stroke-linejoin="round"/>
<path d="M83.8618 18.8338V22.2776" stroke="white" stroke-width="2" stroke-linecap="round" stroke-linejoin="round"/>
<path d="M67.4219 29.0235V46.195" stroke="white" stroke-width="2" stroke-linecap="round" stroke-linejoin="round"/>
<path d="M73.8843 29.0235V37.3262" stroke="white" stroke-width="2" stroke-linecap="round" stroke-linejoin="round"/>
<path d="M80.3706 29.0235V31.8776" stroke="white" stroke-width="2" stroke-linecap="round" stroke-linejoin="round"/>
<path d="M19.7053 7.46478L16.2144 22.5606" stroke="white" stroke-width="2" stroke-linecap="round" stroke-linejoin="round"/>
<path d="M56.0765 29.0236V34.0241C56.0765 34.8999 55.7286 35.7398 55.1093 36.3591C54.49 36.9784 53.6501 37.3263 52.7743 37.3263H49.4013C48.5255 37.3263 47.6856 36.9784 47.0663 36.3591C46.447 35.7398 46.0991 34.8999 46.0991 34.0241V22.5607" stroke="white" stroke-width="2" stroke-linecap="round" stroke-linejoin="round"/>
<path d="M21.4268 32.1371V22.5607" stroke="white" stroke-width="2" stroke-linecap="round" stroke-linejoin="round"/>
<path d="M31.2861 29.0235V34.024C31.2861 34.4577 31.2007 34.8871 31.0347 35.2877C30.8688 35.6884 30.6255 36.0524 30.3189 36.359C30.0123 36.6657 29.6482 36.9089 29.2476 37.0749C28.8469 37.2408 28.4175 37.3262 27.9839 37.3262" stroke="white" stroke-width="2" stroke-linecap="round" stroke-linejoin="round"/>
</svg>
